<?xml version="1.0" encoding="UTF-8"?>
<svg id="Layer_2" data-name="Layer 2" xmlns="http://www.w3.org/2000/svg" viewBox="0 0 595.28 595.28">
  <defs>
    <style>
      .cls-1 {
        fill: #022859;
      }

      .cls-2 {
        fill: #025918;
      }
    </style>
  </defs>
  <polygon class="cls-1" points="277.4 286.76 230.12 286.87 238.42 309.76 267.38 309.7 277.42 295.57 277.4 286.76"/>
  <path class="cls-1" d="M456.97,233.62l-18.14,23.13,15.28,26.48-65.88,35.11,45.12,9.02c4.59-3.11,22.56-17.66,29.16-42.74,6.75-25.64-3.08-46.16-5.55-50.99Z"/>
  <path class="cls-1" d="M252.01,260.47l-26.72,12.26,1.63,26c-6.17,1.34-16.79,2.69-29.13-.65-5.55-1.5-16.8-4.54-25.87-14.75-9.14-10.28-10.91-22.05-12.01-29.3-1.26-8.35-.76-15.38-.12-20.02l-20,29.13-9.36,12.7c.04.36.13.77.25,1.22.8,5.21,4.84,26.26,24.06,39.53,43.35,29.94,97.16-6.03,97.28-56.13Z"/>
  <rect class="cls-2" x="244.83" y="321.08" width="18.35" height="18.35" transform="translate(-159.13 276.34) rotate(-45)"/>
  <rect class="cls-2" x="244.83" y="339.51" width="18.35" height="18.35" transform="translate(-172.16 281.74) rotate(-45)"/>
  <rect class="cls-2" x="187.64" y="263.98" width="18.35" height="18.35" transform="translate(-135.5 219.18) rotate(-45)"/>
  <polygon class="cls-1" points="413.01 286.69 414.26 287.21 413.76 287.6 412.27 286.9 413.01 286.69"/>
  <g>
    <path class="cls-1" d="M361.77,250.46l-35.94,36.72h-25.63s4.63-28.87,4.63-28.87l-25.71,11.84-6.51,39.56,31.04.14-13.71,14.01,23.8,3.92,22.47-17.78,59.02.27,19.42-22.88.02-.1v-.05s-52.89-36.76-52.89-36.76ZM377.69,288.9v.03s-5.92,6.97-5.92,6.97l-17.99-.08-.04.03-9.93-.03.05-.05h-.07s6.78-6.9,6.78-6.9h.05s10.95-11.19,10.95-11.19l16.12,11.2v.02ZM413.31,287.22l.11-.11.69.11h-.8Z"/>
    <polygon class="cls-1" points="377.31 288.85 377.28 288.89 377.52 288.89 377.31 288.85"/>
  </g>
</svg>