<?xml version="1.0" encoding="UTF-8"?>
<svg id="Layer_1" data-name="Layer 1" xmlns="http://www.w3.org/2000/svg" viewBox="0 0 561 462.27">
  <defs>
    <style>
      .cls-1 {
        fill: none;
        stroke: #5c946a;
        stroke-miterlimit: 10;
        stroke-width: .27px;
      }

      .cls-2 {
        fill: #025918;
      }
    </style>
  </defs>
  <g id="features">
    <path id="SA04" class="cls-2" d="M329.41,409.72l7.31-59.55,6.23-48.8,6.61-54.12.16-5.64-.38-3.06-.54-1.83-.97-2.26-.97-1.61-.97-1.18-5.86-5.91-8.22-5.97-.38-.48-.32-.48-.16-.38-.21-1.18-.54-34.45-.11-.81-.16-.48-.21-.48-.32-.48-.32-.32-.27-.21-7.42-2.96-.48-.32-.43-.48-.64-.97-3.82-3.76-.54-.32-.48-.16-.59-.05-3.44.64h-.54l-.54-.11-.59-.16-.54-.27-5.7-4.14-1.45-.81-1.02-.38-1.02-.21-3.87-.11-.97-.21-.54-.21-.97-.7-2.2-2.1-1.45-1.77-.48-.43-.48-.27-.54-.11-1.67-.16-1.07-.32-6.61-3.82-.48-.48-.59-.7-.27-.7-.64-2.26-.32-.64-.38-.54-.97-.91-1.99-1.45-.27-.16-.27-.32-.59-.91-.21-.54-.11-.48v-.48l.05-.43.21-.75.59-1.5.48-.86,3.87-4.73,1.13-1.67,8.17-15.42,1.4-2.1,1.83-2.04,2.26-2.1,3.28-1.83,10.96-4.14.32-.32.38-.11,1.02-.21,1.02-.21,2.58.32,2.58.32,2.63.32,2.58.32,2.31.27,2.31.32,2.31.32,2.31.32,1.29.16.27.48,1.13,1.88,1.29,3.55.11.7.11,1.4.21.81.32.81.32.59.54.43.48.38.48.48.16.7h1.24l4.14-.05,4.14-.05,4.08-.05,4.14-.05.54.59.32.21.59.27.05.21.21,1.13v.91l-.16.59-.54-.21-.11.16-.05.11v.11h.43l.38-.11.32-.21.11-.43.27.21v.21l-.27.48-.11.7-.05.32.16.59.27.54,1.93,2.15.11.32-.32.48-.16.48v.54l.11.54.21.43.75,1.02.16.27-.05.32v.11l.38.21.75.32.27.05.81-.05.21.11.43.21.27.05.11.11v.16l-.05.16-.11.11-.16.11h-.16l-.16-.11-.38.21-.11.16v.38l.21.38.48.48.54.38.43.21v.11l.54.81.91.91.11.27-.21.54v.64l.11.11-.05.21-.21.38-.32.43-.32.27.21-.32v-.21l-.05-.64.05-.38.16-.21.05-.21-.11-.38-.32.38-.38.97-.38.27.43-1.13.05-.32-.16-.48-.16.05-.21.38-.43,1.83v.43l-.05.05-.11.16.05.16.27-.05.11-.11.16-.43.16-.16v1.18l.11.27.21-.05.21-.21.11-.27.21.27v.38l-.05.43.32.11.21-.16.16-.21.11-.27v.43l-.05.16-.11.11.11.27v.16l-.16.05-.27.05.27.54.05.16-.54-.27h-.27l-.16.27.48.21h.43l.32-.27.21-.48h.16l.16.38-.27.32-.11.48.11.43h.43l.16-.16-.11-.21-.16-.16-.05-.16.16-.27.27-.11.54-.16.43-.05.32.16.81.81.86.43.21.32-.43.32.32.11h.32l.11-.21-.11-.27.38.16.43.11.86.11.21-.11.38-.21.21-.05h.21l.48.16h.27l.43.16.38.32.54.75.16.16.16.11.16.11.16.21.05.16.05.48.05.21h-.32l-.16-.11-.05-.27.05-.32h-.16l-.48.59-1.29-.16-.43.48h-.21l-.16-.48h-.38l-.86.48.16.11.54.11.27.16.16.11.16.16.16.11.27.16.16.16.11.11.16-.05.38-.38v-.05l.11-.11.05-.16.11-.11.11.11.21.16.21.11-.16.38-.21.16-.27.11-.16.27-.05.27-.05.64-.05.32.27-.05.27-.16.27-.21.21-.21.27-.05.32.05.48.27-.21.54.11.48.16.54.11.54-.05,1.07.11.48.38-.05v.48l.16.16.27-.05.21-.21-.11-.43.21-.21.38-.05.32.32.16-.21.11.32-.05.27-.16.27-.05.32-.11.21-.16.11h-.27l-.27-.05.21.32.54.11.21.27.21-.11.16-.21.27-.54v.11h.05l.11.05-.27.48.21.05.59-.16.38.05.59.27h.38l-.59-.64-.21-.43.32-.32.32-.05.21.16.21.16.21.11.16-.11.48-.43-.11.38-.21.64v.38l.16.59.11.32.11.16.43.21.43.48,1.34,2.1.7.86.21.16.64.27.21.21.32.32.27.21,1.4.64.91.64.54.05h.54l.54.05.75.43.64.64,1.18,1.61.38.7,1.72,1.24.38.43.05.64-1.02-.91-.59-.38-1.24-.16-.32-.11-.21-.27-.21-.97-.21.16-.21.43-.11.43v.64l.11.27.16.27.21.21.05.16-.11,1.56.05.43.64,1.99.27.43.38.38.38.27,1.99.7.7.59.43.86.16,1.18v2.85l-.11.59-.21.54-.48.27v-.38l-.16-.16-.27.11-.21.27.16.64-.05,1.02-.21,1.02-.21.7-.32-.27-.11-.38v-.43l-.05-.38-.16-.32-.21-.16-.21-.16-.16-.21-.11-.11h-.11l-.11-.05-.05-.75-.05-.16-.05-.16-.21-.27-.27-.27-.32-.21-.21.11-.64,1.18-.16.16-.27.16.11.32.27.38.11.11.05.21.21.32.05.27-.05.05-.16.05-.16.11-.11.21.05.38.11.38v.38l-.16.38.38.16.38-.21.16-.38-.11-.43.21.05.16.11.27.38.11.05.11-.05.05.05.05.16v.27h.21l.59.16.27.38.11.43.27.48v.16l-.48.48.27,1.18.54,1.34.43.86,1.4,1.72.59.97.27,1.18h-.16l-.43-1.18-.16-.21-.27-.05-.32-.16-.32-.21-.27-.43-.38-.27-.32-.05-.11.48.21.38.59.43.16.27.11-.27.05-.11h.16l.86,1.83,2.69,3.44.59.54-.05-.32-.16-.43-.05-.32.16-.11.27-.16.11.05.11.59.11.16.11.05.05.05.16.38.43.21.81.21.21.27.43,1.13-.16.16.27.43.32.64.27.75.11.59v.32l-.16.54v.32l.05.38.11.21.11.16.11.43.32.64.11.38-.16,1.07.16,1.02.21.59.27.32.16-.48.59.48.64.81.27.43.38.38.48,1.67.54.38.48.43.21,1.02.05,1.56.05.27.21.48.27.43.21.21h.38l.43-.43.05-.05.05.05,1.67,2.74,1.07,1.24,1.18.54,1.4.16h1.29l.38-.11.86-.27,1.56-1.29.05.21h.16l1.02-.16.21.11.05.05.05.11.11.11.16.16.27-.21.05.16v.05l-.05.21-.05.21-.16.05-.16.16.05.27.11.21.05.05-.05.86.16.16.38-.16.32-.21.64-1.13.05-.11.27-.21.27-.21.21-.32v-.59l.32.21h.43l.38.11.11.32.16.32.27.05h.38l.32.21v.21l-.38.16-.48.16-.38.21-.21.38h-.05l-.54.59-.11.21-.11.32-.11.16-1.4,1.02-.21.32-.05.11-.32.43-.11.21-.05.27-.05.59-.05.21v.48l-.05.05-.27-.05-.11.05-.05.05v.86l.11.11,1.45.16.54-.16.27-.16.21-.16.21-.16.32-.05,1.56.32.38.32.7.81,1.02.27.11,1.02v.64l-.05,1.61.16.64.32.59,1.34,1.72,1.18,1.61,1.24,1.56,1.18,1.56,1.24,1.61,1.18,1.56,1.24,1.56,1.18,1.56,1.24,1.56,1.18,1.61,1.24,1.56,1.18,1.56,1.24,1.56,1.18,1.56,1.24,1.56,1.18,1.56,1.24,1.56,1.24,1.61.48.43.54.16,3.76.54,3.22.43,3.22.43,3.22.43,3.22.43,3.22.43,3.22.43,3.22.43,3.22.43,3.22.43,3.22.43,3.22.43,3.22.43,3.22.43,3.22.43,3.22.43,3.22.43,3.17.43.32-.11,1.56-1.99,1.45,2.47,1.88,3.12,1.88,3.12,1.88,3.17,1.88,3.12,1.24,2.04.21.54v.59l-.86,2.85-.11.32-.16.54-.43,1.4-.64,2.15-.86,2.79-1.02,3.33-1.18,3.71-1.18,3.92-.32.97-.97,3.12-1.29,4.08-1.18,3.92-1.18,3.71-1.02,3.28-.86,2.79-.64,2.15-.43,1.34-.16.54-.75,2.36-3.49,1.24-3.98,1.4-3.98,1.4-3.92,1.4-3.98,1.45-3.98,1.4-3.98,1.4-3.98,1.4-3.98,1.4-3.98,1.4-3.98,1.4-3.92,1.4-3.98,1.45-3.98,1.4-3.98,1.4-3.98,1.4-3.98,1.4-2.47.86-.11.05-.43.05-3.22.43-3.71.54-3.71.54-3.71.54-3.71.54-3.71.54-3.76.48-3.71.54-3.71.54-3.71.54-3.71.54-3.71.48-3.71.54-3.71.54-3.76.54-3.71.54-1.72.21-1.99.32-3.01.38-1.83.7-.16.11-.43.21-.54.27-.54.27-.54.27-.54.27-.16.05-.43.21-.48.27-.64.32-.48.27-3.71,1.88-4.46,2.31-3.98,2.04-2.96,1.5-.16.16-.38.21-1.77,2.26-2.1,2.69-3.71,4.57-3.44,4.35-2.26,2.85-.38.75-1.13,3.01-1.56,4.3-.64.86v.05h0ZM378.97,152.24l.43.21,1.24.32,1.18.38-.43.16-.32-.11-.38-.16-.38-.11-.38.05-.38.16-.32.21-.27.27-.21-.16h-.11l-.16-.11-.16-.05v-.16l.32-.16.05-.11-.11-.16-.11-.11-.05-.11-.27-.11-.27.05-.21.05-.21.05-.32.16-.27.27-.27.43-.16.43-.05-.7.43-.64.64-.48.7-.16.27.05.21.11.32.21h0Z"/>
    <path id="SA08" class="cls-2" d="M306.2,106.88l-.32.32-10.96,4.14-3.28,1.83-2.26,2.1-1.83,2.04-1.4,2.1-8.17,15.42-1.13,1.67-3.87,4.73-.48.86-.59,1.5-.21.75-.05.43v.48l.11.48.21.54.59.91.27.32-.97,1.4-.48.27-.59.27-.54-.05-.48-.21-.43-.32-.32-.43-.05-.05-.11-.16-.43-.38-.32-.75-.59-.7-3.87-3.49-.54-.38-1.02-.59-.81-.27-7.15-1.13-.64-.21-.81-.38-.59-.48-.59-.54-.81-1.13-1.93-5.16-3.92-7.09-.38-.54-.54-.43-.64-.21-.81.05-.64.27-2.69,1.77-.91.43-.54.11-.59-.05-.91-.32-2.47-1.29-.64-.21-.81-.05-2.31.21-.59-.05-.64-.16-.81-.54-.54-.59-.32-.81-.16-.59-.05-.32-.11-1.99-.05-.21-.21-.21-.48-.27h-.81l-.7.11-.64.32-1.88,1.02-.64.27-.7.16-.75.05-.86-.11-1.13-.43-.81-.54-.7-.54-2.79-3.39-.54-.48-.48-.32-1.07-.43-7.95-1.83-.59-.05-2.47.16-2.85.7-.59.11h-.59l-.81-.16-5.64-1.83-.75-.11-.97-.05-1.67.21-12.31,2.85h-.54l-1.34-.32-2.69-1.13,3.28-3.28.38-.54.21-.54.11-.38.05-.16.59-8.87.11-.54.16-.59.32-.54.43-.54.59-.59,2.53-1.93,19.35-12.09,1.93-1.56,1.02-1.07.43-.54.11-.54-.16-.54-.43-.48-3.49-2.69-1.13-1.07-.38-.59-.7-1.18-1.02-2.47-.32-.43-.59-.75-.43-.48-.86-.54-.7-.27-2.74-.38h-1.88l-1.29-.16-.75-.27-.64-.32-4.62-3.71-.75-.38-.86-.21h-2.31l-1.4.21-12.68-.32-2.15-.48-.81-.32-.59-.32-1.72-1.5-.54-.43-.54-.32-.75-.16-15.69-2.47-3.06-.05-7.15,1.07-10.32,1.02-1.13-.05-1.02-.27-.54-.21-.54-.27-.48-.43-.38-.54-.81-1.4-.43-.91-.64-1.18-.75-1.07-.7-.7-2.04-1.45-.38-.48-.16-.43-.05-.38-.05-.16-.11-.7-.11-1.67.11-.91,2.79-10.37,4.35-1.29,5.21-1.5,5.21-1.5,5.21-1.56,2.63-.75.81-.32,2.79-2.63.43-.38.21-.05h.11l.05-.05h.05l.05-.05,4.62.81,4.57.81,4.57.75,4.62.81,1.83.32,7.95,1.56,1.24.48,1.29.75,2.36,1.4,2.04,1.24,2.04,1.24,2.04,1.18,2.04,1.24,2.04,1.24,1.99,1.18,2.04,1.24,2.04,1.24,2.04,1.18,2.04,1.24,2.04,1.18,2.04,1.24,1.99,1.24,2.04,1.18,2.04,1.24,2.04,1.18,2.04,1.24,1.56,1.34,1.99,1.72,1.93,1.67,1.93,1.72,1.99,1.72,2.2,1.88,2.2,1.93,2.2,1.93.43.38,1.72,1.5h.05l2.42,2.04,2.04,1.67,2.04,1.67,2.04,1.67,2.04,1.67,2.69,2.15,2.63,2.15,2.69,2.2,2.63,2.15,1.13.91,1.56,1.24,2.63,2.15,2.63,2.15,2.69,2.15,2.2,1.83,2.2,1.77,2.2,1.77,2.2,1.83,1.83,1.4.11.05.16.11.16.05.16.05,2.1.16,1.88.16,1.83.21,1.83.16,1.88.16,2.36.21,2.36.21,2.36.21,2.42.21,2.36.21,2.36.21,2.36.21,2.36.21,1.77.16,1.77.16,1.77.16,1.77.16,2.42.21,1.02-.21.64-.11h0Z"/>
    <path id="SA12" class="cls-2" d="M110.41,34.87l-2.79,10.37-.11.91.11,1.67.11.7.05.16.05.38.16.43.38.48,2.04,1.45.7.7.75,1.07.64,1.18.43.91.81,1.4.38.54.48.43.54.27.54.21,1.02.27,1.13.05,10.32-1.02,7.15-1.07,3.06.05,15.69,2.47.75.16.54.32.54.43,1.72,1.5.59.32.81.32,2.15.48,12.68.32,1.4-.21h2.31l.86.21.75.38,4.62,3.71.64.32.75.27,1.29.16h1.88l2.74.38.7.27.86.54.43.48.59.75.32.43,1.02,2.47.7,1.18.38.59,1.13,1.07,3.49,2.69.43.48.16.54-.11.54-.43.54-1.02,1.07-1.93,1.56-19.35,12.09-2.53,1.93-.59.59-.43.54-.32.54-.16.59-.11.54-.59,8.87-.05.16-.11.38-.21.54-.38.54-3.28,3.28-1.45-.38-.48.05-8.81,3.65-8.6,4.89-4.03,1.13-8.76,4.19-.59.38-.54.38-2.53,2.79-.91-.75-.32-.16-.38-.11-.59-.05-.81.16-.7.16-2.42,1.24-.59.27-.54.05-.59-.05-.48-.32-.38-.43-.64-1.56h-1.02l-.43-.05-.48-.16-.81-.48-.54-.11-.75.21-.59.27-.75.27-.86.05-4.62-.48-1.45-.32-2.53-.86-1.07-.64-1.56-1.29-.38-.48-.38-.54-.27-.54-.38-.91-.27-1.13-.16-1.5-.05-2.36.21-4.25-.11-.59-.21-.54-.43-.32-.54-.11-.48.16-1.45,1.4-1.56.97-.48.43-.32.54-.27.54-.97,2.42-.27.54-.38.48-.54.27-.64.16-3.98-.27-1.93-.38-3.55-1.18-1.34-.21h-1.83l-5.54,1.24-2.58.97h-.91l-.97-.32-.16-.11-.16-.16-5.97-7.79-.75-.7-1.02-.7-.54-.27-4.57-1.13h-1.5l-1.83.32-3.06.21-4.78.91-.97.32-.81.38-.81.81-.38.21-.59.11-3.33-.32-1.88-.48-.81-.05-.75.16-1.99.05v-.11l-.38-.16v-.16l.32-.59.38-1.07.16-1.13-.27-.64v-.38l.27-.48.21-.59.48-2.36.11-.38.27-.59-.05-.16.05-.38.21-.21.54-.32-.16-.43-.05-.59.05-.38.32.16v-.16l.05-.05h.11l-.21-.38-.05-.43.11-.43,2.58.48,2.74.48,3.6.59,3.22.59,3.44.59,2.74.48,1.34.21,2.69.48,2.42.38h.59l.59-.27,2.53-2.04,2.47-2.04,2.69-2.26,1.77-1.5,1.5-2.53,1.45-2.42,1.07-1.83,1.29-2.2.54-.59.64-.32,1.99-.43,2.1-.43,3.33-.7,3.28-.64,3.12-.64,2.74-.59.48-.43,1.02-2.53.81-1.88.81-2.04.7-1.67.32-.48.54-.43,2.47-1.45,2.85-1.56,1.67-.97.16-.11h.05-.05l-1.13-1.34-2.53-3.01-2.58-3.01-2.53-3.01-2.53-3.01-.11-.05-.05-.11-.05-.11-.11-.05-3.01-3.28-2.96-3.22-.05-.05-3.01-3.28-3.01-3.28.86-.27,4.89-1.5,5.7-1.72,5.75-1.72,1.4-.38,4.35-1.34.86-.21h0Z"/>
    <path id="SA10" class="cls-2" d="M336.72,350.18l-7.31,59.55h-.05l-.48.32-.48.27-.48.27-.16.16-1.02.59-2.85,1.67-.54.21h-3.82v.05l-.16-.05h-.32l-.27-.16-1.99-2.74-1.67-2.42-1.5-2.1-.86-.48-5.16.7-3.87.54-5.59-.59-4.41-.43-5.75-.59-4.94-.54-1.02-.32-3.82-2.2-1.29-.27-3.92-.05h-3.44l-4.68-.05h-.05l-.43.11-1.4.54-.05.05h-.7l-1.56-.32-1.45-.05-2.2.21-1.77.43-.48.05-.97-.32-.48-.05-.32.27-.21.38-.11.21-.38.43-.43.21-.59-.11-.91-.43-.38-.05-.48.27h-.05l-.32.43-.11.21-.21.27-.32.32-.59.11-.27-.05-.11-.11-.11-.11-.05-.16.05-.48v-.27l-.16-.11-.54.21h-.43l-.64-.05-.27-.05-.86.11h-.43l-.43-.16-.54-.38-.43-.38-1.18-1.34v-.75l.64-2.47-.05-1.29-.48-1.45-.05-.59v-.7l.21-.97.59-5.37-.05-1.02-.21-1.02-.38-1.07-.21-1.07v-.59l.21-.7.48-.91.59-.75,3.76-3.98,2.58-2.26.75-.75.27-.43.27-.48.54-1.34.32-.59.54-.54.54-.38.54-.21,1.61-.32,1.02-.38,1.07-.54,1.02-.7.43-.43.32-.43.32-.48.21-.64.16-.64.05-.91v-.86l-.11-1.07-.81-3.12v-.59l.16-.64.59-.91.54-.48,1.5-.81.38-.27.21-.32.16-.54.11-.81v-3.12l6.45,4.08,1.67.81,1.24.48,2.2.54,5.97.38,54.33-5.86,3.01-.86h0Z"/>
    <path id="SA14" class="cls-2" d="M261.86,350.6v3.12l-.11.81-.16.54-.21.32-.38.27-1.5.81-.54.48-.59.91-.16.64v.59l.81,3.12.11,1.07v.86l-.05.91-.16.64-.21.64-.32.48-.32.43-.43.43-1.02.7-1.07.54-1.02.38-1.61.32-.54.21-.54.38-.54.54-.32.59-.54,1.34-.27.48-.27.43-.75.75-2.58,2.26-3.76,3.98-.59.75-.48.91-.21.7v.59l.21,1.07.38,1.07.21,1.02.05,1.02-.59,5.37-.21.97v.7l.05.59.48,1.45.05,1.29-.64,2.47v.75l-.43-.48-.97-.59-.54-.21-1.18-.54-.38-.11h-.81l-.43-.11-.48.05-.54.21-1.13.7-.7-1.07-1.24-1.83-.38-.48-.48-.43-1.77-.64-.43-.32-.38-.48-.7-1.56-.32-.48-.59-.59-1.83-1.45-.38-.64-.11-.59.05-1.02-.11-.43-.32-.38-.91-.16h-.16l-1.07.64-.97.7-.43.43-.32.48-.48.97-1.07,4.03-.21.48-.32.32-.43.21h-.48l-.48-.21-.59-.38-2.15-2.26-.38-.59-.32-.59-.16-.48-.27-.54-.48-.43-.64-.38-.54-.11-3.65-.05-.54-.16-.48-.27-.48-.59-.27-.48-.27-.91-.16-.21-.38-.43-.59-.32-.54-.16-.48-.05-1.56.21-.48-.11-.38-.38-.21-.64v-1.13l.48-2.9v-.54l-.11-.43-.21-.38-.91-.27-2.63.21.81-3.12.11-.64v-.64l-.16-.75-1.61-4.84-.27-.48-.38-.38-.43-.27-.48-.16-1.02-.21-.97-.05h-2.53l-.48-.11-.43-.27-.43-.38-.27-.48-.16-.54-.16-.48-.11-1.02.16-5.7.05-.48.21-.21.38.16.38.32.48.21.43.05.43-.21,1.18-.91,1.02-.59.54-.16.48-.11h.54l2.58.27h.32l.32-.11.43-.16.43-.32.32-.43.21-.48.81-2.53v-.59l-.16-.59-.97-1.67-.11-.48-.05-.64v-.59l.7-3.22.05-.48v-.48l-.16-.54-.27-.48-.38-.43-.27-.21-.32-.16-.48-.05-.97.05-1.02.43,2.31-5.11.38-1.24.11-1.72.21-.7.32-.64.54-.48,2.74-1.93.48-.48.54-.75.16-.59-.11-.59-.27-.43-.59-.59-.16-.75-.05-.64,1.13-3.82.43.7,2.36,4.89.38.54.43.38.48.27.54.16.64-.05.75-.21,1.29-.7.75-.59,5.91-5.32,4.57-2.53.64-.54.91-.91.59-.38.64-.27.81-.16,1.45-.05.38-.05.43-.16,1.45-.59.75-.21.97-.16.64.05.64.11,1.45.54.7-.05.81-.27,3.65-2.15,2.47-.97,3.39,3.06,1.24,1.5.75,1.18,1.4,1.83,1.88,2.15.32.59.16.54.05.43-.05.48v.11l-.16.48-.21.43-1.34,2.2-.43.91-.91,4.25v.59l.16.81.38.59,1.29,1.56,2.26,3.76,9.14,8.44.38.27h0Z"/>
    <path id="SA09" class="cls-2" d="M198.18,380l2.63-.21.91.27.21.38.11.43v.54l-.48,2.9v1.13l.21.64.38.38.48.11,1.56-.21.48.05.54.16.59.32.38.43.16.21.27.91.27.48.48.59.48.27.54.16,3.65.05.54.11.64.38.48.43.27.54.16.48.32.59.38.59,2.15,2.26.59.38.48.21h.48l.43-.21.32-.32.21-.48,1.07-4.03.48-.97.32-.48.43-.43.97-.7,1.07-.64h.16l.91.16.32.38.11.43-.05,1.02.11.59.38.64,1.83,1.45.59.59.32.48.7,1.56.38.48.43.32,1.77.64.48.43.38.48,1.24,1.83.7,1.07-.91.59-1.4,1.18-.59.54-1.13,1.4-.05.11,1.29.43.48.38.16.38.05.11-.05.48-.54.27-.54.16-.59.21-.48.43-.16.43.05.59-.16.48-.48.97-.11.48.05.43.21.38.11.54v.54l-.11.48-.38.91-.16.59.11.43.48.91.27.91.27.21.86.21.27.21.16.27v.32l-.05.21-.21.16-.21.11-.21.11-.32.54.05.32.21.38.16.54v.05l-.16.43-.21.05-.16.05-.54-.16-.43-.11-.54-.11-.32.11-.11.32-.05.54-.05.43-.59,1.61-.32.38-.43.32-.05.05-1.02.59-.32.16-.27.05-.64.11-.27.11-.05.32.05.38v.38l-.16.38-.64.43-.81.32-.16.11-.91.32-.05-.11v-.86l-.16-.27.32-.75-.16-.48-1.13-1.24-.27-.59-.05-.43v-1.07l.27-1.02v-.43l-.43-.11.16-.21-.27-.27-.21-.38-.05-.32.21-.16-.11-.27-.64-.59-.16-.16-.32-.43-.54-.59-.16-.16-.7-.38-.27-.05-.27.16-.75-1.13.32-1.07-.16-.38v-1.18l-.11-.43-.21-.11-.27-.16-.05-.27-.21-.21-.43-.05h-.81l-.27-.27-.21-.38-.32-.7-.11-.32-.11-.86-.11-.32-.21-.21-1.02-.43.05.43.16.38.43.7-.48.27.21,1.61-.21.43-.16-.48v-1.67l-.11-.54-.32-.91-.38-3.28-.16-.59-.11-.43.16-1.24-.05-.48-.16-.59-.16-.21-.21-.05-.27-.05-.16-.05-.11-.11-.05-.21-.16-.27-2.47-2.15-.21-.05-.05.11-.16-.21-.27-.48-.43-.64-.16-.43-.11-.21-.16-.05-.54.11-.21-.05-.11-.32-.11-.21-1.02-1.02-.05.05-.11.05-.21.05h-.11l-.21-.21-.7-1.02-.27-.16-1.34-1.29-.54.21-.86-.59-.54.05-.21-.64-.38-.38-.54-.38-.43-.43-.97-1.24-.16-.43.05-.32.05-.27-.05-.16-.27-.11-.21-.05v-.43l-.05-.16-.97-.86-.38-.54.21-.43-.11-.16.43-1.02.21-.43.38-.43.43-.27,1.45-.81.43-.43.27-.38.43-.97h0ZM207.8,419.13v.32l-.05.43-.16.54.05.43.21.7-.21.48v.05l-.54-.05-.64-.75-.54-.21h-.48l-.27-.27.7-.27.38-.27-.16-.54-.59-.32-.59.11-.7.05-.48.11-.43.27-.38.21-.43-.16-.54-.48-.38-.38-.54-.11-.59-.43-.59-.48-.27-.48-.16-.75-.38-.27h-.43l-.27-.05.05-.16v-.54l-.38-.43-.21-.48.05-.43.32.11.16.16.27.21.91.43.48.59.27.32.05.59v.27l.43.48.38.32.16.11.86-.11.27.48h.43l.48-.16h.43l.27.27v.27h.27l.7-.27-.64-.16-.38-.54.32-.43.16-.7.16-.21.32-.05.11.05.21.11.64.38v.38l.32.54-.05.27.59.05.16.48.86.38h0ZM201.62,417.03l-.32-.27-.38-.43-.59-.75-.48-.7-.16-.27.27-.21.54-.05.43-.11.27-.27.21-.43h.27l.05.05.11-.48-.16-.59-.32-.16-.32-.16h-.27l-.54-.11-.27-.05-.11-.11.21-.16.21-.11.05.21.75.05.59.27.38.43.05.11.11.64v.48l-.11.54.11.43.75.16.21.54-.97.05-.27.32.11.43.59.21.32.16.43.21.16.59v.27l-.7-.43-.86-.21-.38-.11h0Z"/>
    <path id="SA07" class="cls-2" d="M37.49,111.93l1.99-.05.75-.16.81.05,1.88.48,3.33.32.59-.11.38-.21.81-.81.81-.38.97-.32,4.78-.91,3.06-.21,1.83-.32h1.5l4.57,1.13.54.27,1.02.7.75.7,5.97,7.79.16.16.16.11.97.32h.91l2.58-.97,5.54-1.24h1.83l1.34.21,3.55,1.18,1.93.38,3.98.27.64-.16.54-.27.38-.48.27-.54.97-2.42.27-.54.32-.54.48-.43,1.56-.97,1.45-1.4.48-.16.54.11.43.32.21.54.11.59-.21,4.25.05,2.36.16,1.5.27,1.13.38.91.27.54.38.54.38.48,1.56,1.29,1.07.64,2.53.86,1.45.32,4.62.48.86-.05.75-.27.59-.27.75-.21.54.11.81.48.48.16.43.05h1.02l.64,1.56.38.43.48.32.59.05.54-.05.59-.27,2.42-1.24.7-.16.81-.16.59.05.38.11.32.16.91.75.43.54.38.27.54.21,7.47,1.77,1.29.48.86.48.48.59.11.11.54.54.7.48,1.4.7,2.74,2.26,1.34,1.34.32.54.21.59,2.53,10.26.27.48.38.48.32.38.91.59,2.79,1.5.54.48.48.59.11.54-.05.54-.21.54-.38.54-.43.48-2.85,2.47-1.07,1.45-.7,1.4-1.34,4.19-.43.86-.38.54-.38.27-.75-1.18-.43-.32-.54-.32-.48-.05-9.67,1.45-2.31.05-1.13-.16-.91-.32-2.79-2.15-2.9-1.07-.86-.43-.54-.48-.38-1.02-.27-.54-.54-.43-.43-.05-.27.27v.48l.11.48.05.54-.11.38-.59.27-.54-.05-.59-.16-1.72-.81-.75-.27h-.54l-.54.05-.32.16-2.04,1.67-.64.43-.7.16-.48-.16-.21-.38v-.48l.05-.54v-.54l-.16-.48-.38-.43-1.45-.91-.38-.43-.16-.43-.05-.43.05-.21v-.21l-.05-.32-.21-.38-.38-.27-.48-.21-.54-.05-2.31-.11-1.02-.16-.64-.38-.54-.43-1.29-1.99-.48-.91-.43-1.07-.64-2.36-.21-.43-.32-.48-.59-.43-.43-.16-.43.05-4.35,2.36-.48.16-.54.11-.54-.05-.97-.16-.7-.27-1.93-1.24-1.07-.48-.7-.11h-.64l-.48.16-5.97,2.85-2.69.64-.48.27-.43.38-.11.43.11.43.38.27.48.05,1.5-.27.43-.05.32.05.38.16.43.27.32.38.21.32.21.48.32,1.56.05.7-.05,1.45-.48,3.49.05,1.13.11.59.16.59.21.54.32.54.38.48.48.48.54.38.54.21,2.69.81.48.27.43.48.21.59.05.64-.16.54-.16.43-1.4,2.31-.43,1.07-.11.54-.05.54.05.54.16.54,1.34,2.69.32,1.07.27,1.07.11.43.21.32.32-.11.86-.7.48-.16.54.05,4.14,2.42.38.27.11.16.11.05.32,1.45.21.54.27.48.43.54,3.01,2.53.43.48.32.48.38.75.7,1.93.81,3.12.21.54.05.05.16.05.38.11,1.45.11.48.05.32.21.32.27.16.48.05.48-.86,5.86.32,8.44-.11.38-.21.48-.48.64-.54.43-.54.27-.59.11-1.13-.05-1.02-.21h-.54l-.48.05-.54.32-.48.54-.64.81-.54.54-.59.38-.54.21-.48.16-.91.11h-1.88l-.48.11-.48.21-.38.43-.27.43-.16.48-.27,1.5-.05.16-1.45-2.15-1.45-1.99-.64-.91-.05-.7.11-.21v-.21l-.05-.27-.05-.16-.16-.11-.32.32h-.21l-.43-.21-.27-.43-.43-.91h.59l.54.11h.54l.54-.21.32-.43v-1.29l.54-1.07-.05-.54-.48-1.07-.11-.64.11-1.5v-.59l-.16-.54-.16-.48-.27-.48-.48-.54-.27-.27-.21-.16-.21-.21-.21-.48-.21-.16-.48-.38-.43-.54-.38-.54-.32-.59-.05-.27-.05-.59-.05-.21-.11-.21-.38-.38-.11-.27.38-.27-.32-.59-1.02-1.07-.16-.32-.38-1.07-.16-.21-.27-.21-.16-.11v-.48l-.05-.16-.21-.27-.32-.75-.16-.27-.32-.21-.7-.32-.27-.16-.91-1.45-.59-.75-.48-.05-.05.32.16.27.05.27-.27.16-.27-.11-.7-.48-.38-.11-.21-.16-.48-.64-.16-.27-.05-.16.05-.54-.05-.16-.27-.05-.16-.16-.27-.64-.05-.59.21-.59.48-.54.32-.54.11-.7-.11-.75-.21-.59-.54-.59-.75-.38-.81-.21-.75-.05-.86-.32-.54-.7-1.5-3.55-.54-.86-.97-1.4-1.72-4.25-1.83-3.28-1.13-1.45-1.34-1.18-.59-.7-.38-1.13-.7-1.24-.48-1.61-.38.11-.32-.27-.59-.91-1.5-1.34-1.83-2.42-.64-1.29-.11-.21v-.27l.05-.21.21-.38.05-.21-.11-.32-.59-.81-1.93-2.36-1.07-.75-.32-.27-.54-.64-.64-1.02-.7-.7-.86-1.67-.27-.64-.05-.54-.05-.97-.11-.48-.21-.32-.75-.86-.43-.7-.59-1.56-.48-.7-.21-.16-.48-.16-.16-.11-.11-.21-.11-.32-.27-.54-.11-.7-.21-.38-1.18-1.4-.38-.64-.21-.21-.38-.21-1.13-.86v.16h-.16l-.21-.32.27-.27.54-.27.38-.21.27.11-.05-.16-.21-.38-.11-.05-.64-.16-.21-.11h-.16v.21h-.11l-.11-.16-.16-.21-.16-.11-.16-.05h-.59l-.32-.32-1.07-.75-.21.16h-.54l.11.11.05.16.11.11-.21-.16-.27-.16-.27-.11-.27.16-.21.16-.75.21-.16.11-.16.11-.05.21h-.16v-.21h-.16l-.32.11-.48-.11h-.43l-.32.38-.11-.11-.11-.05v-.21h.21v-.16l-.11-.21.11-.11.21-.16.21-.05-.21-.11h-.48l-.21.11v.16h.16v.21l-.27.05-.16.21-.21.43-.11-.11h-.05l-.05-.05h-.11l.11-.16.11-.16.21-.11.21-.11v-.38h-.32l-.27.05-.16.16-.05.32-.11-.11h-.05l-.05.05-.11.05v-.38h-.11v.21h-.21l-.11-.21-.11-.16-.11.05-.16.11-.21-.16-.05-.05-.11-.21-.11-.11-.16-.32-.05.05-.05.05-.11.11-.11.11-.27-.21-.11.11v.27l-.11.21-.16.11-.32.16-.11.11v.16l.48.38v.16l-.16.05h-.05l-.05.05-.05.05-.16-.16-.11.48-.05.32-.16.21-.48.05.05-.11h.05l.05-.05-.16-.21-.11-.38-.05-.32v-.64l-.16-.16-.59.21.11-.32-.11-.16.32-.48.21-.21.21-.11v-.11l.16-.05.16-.21.16-.05-.16-.21.05-.11.11-.11.11-.11h.21v.11h-.11l-.05.05.21.11.21.05.11-.05.11-.27h-.16v-.21l-.16-.16.05-.16.16-.16.27-.05v-.16l-.11-.27.21-1.18.11.05.16.05.11.05-.05-.05.05-.27-.16.05-.05.05-.16-.11.48-.48.48-.86.38-.97.21-1.24.48-.7.16-.75.16-.48.64-1.13-.16-1.18-.05-1.24-.38-1.24.43-1.61.32-.86.38-.7v-.16h-.16l.38-.64.05-.32-.11-.32v-.16l.27-.81-.05-.21h0ZM88.16,202.28l.21.21.11.11h-.05l-.11-.05h-.16v.11l.11.16-.21-.05-.43-.27-.16-.27.05-.21h-.21l-.27.11-.16-.21-.11-.38h-.21l-.27.16-.05-.16.16-.48.21-.27h.32l.32.05.27.16.21.54.16-.05.05-.16.05.11.16.86h0ZM86.18,202.33l.38-.05.05.11-.38.27-.21.11-.21.32-.27.43-.32.27-.48-.32-.43-.48-.43-.32-.97-1.02-.05-.05-.05-.16v-.11l.05-.05v-.11l-.27-.27-.27-.38.05-.21.21.05.21.21.43.54.21.16.43.21.81.38.38.11h.32l.21.16.11.16h-.48l-.11.38.21.27.27-.05.27-.32.32-.21h0ZM84.03,199.37l-.21-.11-.32-.27.05-.38.32-.21.32.05.21.27v.32l-.21.21-.16.11h0ZM82.68,200.29l-.27-.21h-.11l-.11-.05-.11-.16v-.27l-.21-.05-.32-.05-.05-.11.11.05-.05-.16-.21-.27-.32-.21h-.43l-.16.16-.11.05-.21.05.05-.21.21-.38.38-.05.43.11,1.13.81.11.16.16.32.32.21.38.11.54.32.81.7.21.21-.05.11-.11.11.05.11-.11-.11-.38-.27-.32-.16-.21-.11-.11-.16-.11-.27-.21-.11-.16.05-.21-.05-.21-.21h0ZM85.21,198.94v-.75l-.05-.16v-.27l.16-.21.21-.05.21.05.11.27v.21l-.05.21h-.11l-.16-.11v.05l.05.16v.11h-.05l.16.32.16.7-.11.21-.27-.38-.16-.11-.11-.27h0ZM80.16,198.35v.16l-.16.27-.16.16-.16-.11-.32-.21-1.83-.97-.54-.11-.16.38-.21-.11-.43-.43-.32-.38-.11-.54.16-.43.59-.59.27-.32.16-.11.05.16-.16.27-.38.59.05.21.16.21.16.16h.11l.11.05.16.16.16.11.21.05.59.64.27.21h.32l.21-.05.05.11v.16l.11.21.21.11.21-.05-.05-.05v-.11l.11-.11.21.05.32.21h0ZM76.93,194.27v-.21l-.05-.54.05-1.07.38-.86.54-.59.16-.05-.27.32-.27.38-.21.43-.05.54.21.43.43.43.16.05.21.05-.05.16-.16.32-.11.38.05.11v.16l.21.16.27-.11.05.05-.11.21-.21.16-.32-.05-.48-.38-.21-.21-.21-.27h0Z"/>
    <path id="SA03" class="cls-2" d="M96.39,224.79l.05-.16.27-1.5.16-.48.27-.43.38-.43.48-.21.48-.11h1.88l.91-.11.48-.16.54-.21.59-.38.54-.54.64-.81.48-.54.54-.32.48-.05h.54l1.02.21,1.13.05.59-.11.54-.27.54-.43.48-.64.21-.48.11-.38-.32-8.44.86-5.86-.05-.48-.16-.48-.32-.27-.32-.21-.48-.05-1.45-.11-.38-.11-.16-.05-.05-.05-.21-.54-.81-3.12-.7-1.93-.38-.75-.32-.48-.43-.48-3.01-2.53-.43-.54-.27-.48-.21-.54-.32-1.45-.11-.05-.11-.16-.38-.27-4.14-2.42-.54-.05-.48.16-.86.7-.32.11-.21-.32-.11-.43-.27-1.07-.32-1.07-1.34-2.69-.16-.54-.05-.54.05-.54.11-.54.43-1.07,1.4-2.31.16-.43.16-.54-.05-.64-.21-.59-.43-.48-.48-.27-2.69-.81-.54-.21-.54-.38-.48-.48-.38-.48-.32-.54-.21-.54-.16-.59-.11-.59-.05-1.13.48-3.49.05-1.45-.05-.7-.32-1.56-.21-.48-.21-.32-.32-.38-.43-.27-.38-.16-.32-.05-.43.05-1.5.27-.48-.05-.38-.27-.11-.43.11-.43.43-.38.48-.27,2.69-.64,5.97-2.85.48-.16h.64l.7.11,1.07.48,1.93,1.24.7.27.97.16.54.05.54-.11.48-.16,4.35-2.36.43-.05.43.16.59.43.32.48.21.43.64,2.36.43,1.07.48.91,1.29,1.99.54.43.64.38,1.02.16,2.31.11.54.05.48.21.38.27.21.38.05.32v.21l-.05.21.05.43.16.43.38.43,1.45.91.38.43.16.48v.54l-.05.54v.48l.21.38.48.16.7-.16.64-.43,2.04-1.67.32-.16.54-.05h.54l.75.27,1.72.81.59.16.54.05.59-.27.11-.38-.05-.54-.11-.48v-.48l.27-.27.43.05.54.43.27.54.38,1.02.54.48.86.43,2.9,1.07,2.79,2.15.91.32,1.13.16,2.31-.05,9.67-1.45.48.05.54.32.43.32.75,1.18.43,1.07.11.54.05.64v.59l-.21.91-.11.32-.81,1.56-.32.75.05.64.21.54.48.43.48.16.54.05,1.07-.21h.59l.48.43.21.54.05.54-1.29,8.71v.75l.11.64.7,2.85.43,2.58-.21,6.83.11.7.27.59.32.48.38.38.27.21.43.21.48.16.54.05h.54l.54-.11,5.75-2.04,1.18-.16,2.74.05,1.02-.11.48-.11.43-.11.32-.16.43-.21.43-.32.48-.43,1.67-2.15.54-.48.64-.38.81-.27.64-.16,3.98-.16,6.5,1.02,1.99.54.59.21,3.06.75,1.02.32.43.32.38.48.16.64.11.59-.48,6.66.11.59.21.59.43.7.54.43.54.27,3.01.81.38.16.21.21.05.05.43.7.38.97,1.24,4.84.43,1.02.32.48.38.38,1.99,1.5.05.86-.32,1.13-.27.75-.05.11-1.07,1.4-.38.59-.16.43v.38l.05.16.32.86v.59l-.05.97-.43,1.93-.27,4.35.05,2.31-3.01-.43-1.5.05-.54.27-.43.32-.32.48-.11.48.05.54.59,1.67.11.54.05.54-.05,1.13-.16.59-.32.7-.59.91-.59.59-.54.43-4.14,1.83-3.01,1.67-1.02.81-.7.75-.27.59.16.54.43.43.48.38,2.53,1.4.38.43.16.54-.27.7-.43.48-.54.32-2.69.97-.64.43-.7.59-3.22,3.28-6.61,5.21-.91,1.07-1.67,2.58-.59.64-.54.21-.59.05-3.55-1.13-.59-.05-.7.16-.97.59-2.36,1.99-.48.32h-.11l-.59.16-.48.05h-.54l-1.5-.21h-.11l-.48-.32-.27-.43-.11-.48.11-.48.21-1.02.16-1.07-.05-.54-.11-.54-.21-.54-.38-.48-.43-.38-.43-.32-.7-.38-1.56-.48-.43-.21-.32-.38-.05-.48.11-.54,1.29-3.01.11-.48.16-1.18v-.75l-.11-.48-.16-.48-.27-.43-.43-.38-.48-.11-.48-.05-2.2.27-4.94,1.56-1.77.32-.54-.21-.21-.43-.11-1.02-.11-.48-.21-.43-.48-.27h-.64l-2.47.43-.91.05-.81-.11-.54-.38-.54-.43-1.77-2.15-1.88-1.67-.32-.32-.97-1.56-.48-.43-.59-.21-.7.05-1.61.38-2.9.21-.75.11-.05-.54-.05-.7-.16-.54-.05-.48-.38-.38-.16-.27-.11-.43v-.43l-.54.32-.21-.16h-.21l.05.43.21.21.59.21v.16l-.81-.05-.48-.48-.05-1.24-1.02-1.34-.54-1.72-.16-.59-.11-.64-.16-.59-.38-.43-.21-.11-.27-.05-.38-.16-.21-.27-.11-.32-.16-.48-.32-.32-.38-.16-.38-.11-.32-.16-.21-.16-.21-.43-.38-.43-.21-.16-.38-.27-.43-.16-.43-.05-.54-.38-.27-.21-.48-.43-.43-.59-.48-.32-.38-.38-.7-.7-.21-.11h-.16l-.21.05-.21.16-.48-.38-.38-.32-.97-.59-.7-.54.11-.32.43-.27.54-.11-.21-.21-.32.11-.43.21-.21-.32.27-.43.11-.38-.21-.11-.16.16-.32.05-.11.27.11.11.11.27v.32l.05.21-.16.16-.48-.21-.7.21-1.07-.81-.32-.32-.91-.7-.21-.54-.27-.21-.43-.16-.38-.27-.38-.32-.43-.27h-.54l-.27-.05-.38.27-.05.38.11.48-.97.05-.27-.38-.64-.32-.54.16-.54-.54-.32-.59-.48-.7-.86-.7-.27-.86.27-.54.16.05.43.32.21-.43-.16-.43-1.72-2.53h0Z"/>
    <path id="SA02" class="cls-2" d="M196.51,343.62l1.02-.43.97-.05.48.05.32.16.27.21.38.43.27.48.16.54v.48l-.05.48-.7,3.22v.59l.05.64.11.48.97,1.67.16.59v.59l-.81,2.53-.21.48-.32.43-.43.32-.43.16-.32.11h-.32l-2.58-.27h-.54l-.48.11-.54.16-1.02.59-1.18.91-.43.21-.43-.05-.48-.21-.38-.32-.38-.16-.21.21-.05.48-.16,5.7.11,1.02.16.48.16.54.27.48.43.38.43.27.48.11h2.53l.97.05,1.02.21.48.16.43.27.38.38.27.48,1.61,4.84.16.75v.64l-.11.64-.81,3.12-.43.97-.27.38-.43.43-1.45.81-.43.27-.38.43-.21.43-.43,1.02-.27-.38-.16-.27-.05-.32-.11-.11-.21-.11-.16-.11.11-.38-.43-.05-.48-.16.11-.11v-.05l.05-.05.16-.11-.16-.27-.21-.16h-.27l-.32.11.16-.21.11-.27.05-.21-.16-.16.16-.32-.16-.16-.27-.05-.38.05.05-.32-.05-.48-.16-.48-.21-.32-.11-.27-.16-.91-.05-.21-.05-.21-.05-1.29-.05-.16-.05-.11-.11-.05h-.16l-.11-.11-.05-.21v-.21l-.05-.16-.86-.59-.11-.16-.05-.27-.11-.27-.16-.27-.38-.16-.11-.11-.11-.11-.05-.05-.16.05-.21.21-.11.05-.27-.11-.21-.16-.27-.16-.16-.27-.64-1.34-.27-.38-.27-.32-.16-.32v-.32l.05-.48.54-1.61.11-.48.05-.16.11-.11.05-.16-.21-.32-.11-.05-.54-.27-.97-.27-.21-.75v-.16l-.48-.59-.11-.05v-.27l.05-.27.11-.48.11-.27.11-.21.11-.16.05-.43.11-.54.32-.59-.21-.38-.43-.27-.48-.21-.97-.27-.43-.32-.21-.64-.38-.54-.05-.21v-.27l.16-.59v-.21l-.16-.48v-.21l-.11-.21-.43-.27-.11-.21-.11-.48-.21-.27-.38-.21-.64-.48.05-.11.05-.27-.05-.27-.27-.38-.05-.21v-.27l-.16-.38.05-.27.16-.27.21-.16.11-.21-.16-.16.05-.27-.05-.27-.16-.21-.05-.32-1.93-.7-.59-.27-1.18-1.24-.54-.32v-.16l.27.05.54.32.11-1.02-.05-1.24-.16-.54-1.07-1.56-.43-.27-1.18-.16h-.48l-.21.27.27.59-.32-.27-.32-.54-.16-.48-.05-.21-.32-.21-.97-1.4-.7-.43-.16-.16.05-.16.27-.64-.16-.48-.27-.27-.7-.27-.86-.54-.21-.11-.21-.32-.21-.05-.21-.16-.54-.81-.21-.05-.54-.16-.21-.05-.43-.11-.48-.27-1.07-.86-.81-.91.16-.38-.38-.27-.64-.16-.7-.11-.16-.16-.21-.27-.32-.38-.21-.21v-.11l-.21-.16-.75-.7-.38-.16h-.54l-.54.11-.48.16-.21.21-.54-.21-.97-.59-.54-.21v.32l.16.16.21.11.16.21.11.05.21.11.16.16-.16.11-.38-.11-2.31-1.4-.32-.32-.27-.11-.48-.16-.43-.21-.32-.7-.43-.43-1.24-.97-.64-.64-1.34-2.2-.48-.38v-.21h.43l.11-.11.11-.21-.38-.05-.27-.21-.54-.48-.16-.27-.16-.75-.11-.27-.75-.86-.05-.43.38-.59-.81-.27-.32-.05.05.21.11.11.11.11.16.11-.43-.16-.54-.32-.27-.38.16-.38-.21-.11-.11-.16v-.16l.16-.21.11.16.16.16.21.11.32.05-.11-.27-.05-.16v-.16l-.05-.21h-.11l-.16.05-.16-.11-.32-.43h-.11l-.05.43-.48-.32-.7-.48-.43-.64v-.59l.11.16.16.16.16.05.05-.16-.05-.32-.16-.11-.16-.05-.16-.11-.21-.11h-.27l-.21.11-.27.05v-.11l-.64-.97-.16-.38-.05-.43v-.59l-.05-.21-.32-.21-.11-.27v-.27l-.11-.11-.16-.05-.97-.7-.27-.27-.11-.7-.21-.48-.05-.27.05-.16.21-.32.05-.16-.16-.32-.91-1.34-.27-.21-.75-1.18,1.83-1.61.27-.59.05-.81-.21-.7-.32-.38v-.16l.21-.21v-.32l-.38-.81-.32.48-.21.11-.21-.32-.21-.48.16-.16-.38-.54-.11-.75.05-.75-.05-.7-.21-.64v-.38l.48-.16.11-.16.11-.32v-.43l-.16-.27-.16.48-.16.27-.16.11h-.32l-.05-.11v-.21l-.11-.21-.16-.11-.05-.11-.11-.11-.11-.16-.11-.27v-.38l-.11-.21-.27-.16-.05-.11-.11-.21v-.05l-.81-1.02-.7-1.45-.38-2.15v-.48l.64-.21.59.81h.48l.11-.54v-.48l.05-.27.05-.11.32-.21.05-.11.05-.48.21-1.02.05-.48h-.11l-.38.86-.11-.38.05-.27.16-.27.05-.38v-1.02l.21-.7.75-.86.21-1.07.16-.27.21-.16.21-.27.32-.7.38-.43.11-.11v-.32l-.16-.27-.21-.16-.27.05-.16.27-.16.7-.16.27-.54.11-.05-.75.32-1.02-.21-1.4.16-1.4-.16-.7-.16-.32-.64-.86-.59-1.4-.48-.75-.16-.43.05-.27.64-.59-.05-.21-1.13-1.24-.43-.38-.21.11.05.16.43.43.16.21.05.27.05.27.05.27.16.21-.16.21-.32-.75-.64-.97-.64-.7-1.18-2.2v-.32l.7.38.75,1.67.38.11.27.16.21-.05.16-.16.16-.27-.27-.32-.38-.75-.21-.16-.16-.05-.21-.16-.16-.27-.05-.27-.21-.43-.43-.16-.54-.16-.38-.21-.48.11-.32-.38-.48-1.07.27-.27.16-.32.16-.38.05-.38-.05-.7-.11-.38-.05-.32-.27-.11-.21.38-.27-.59-.43-.54-.43-.81-.38-.54-.21-.54-.27-.38-.05-.32-.21-.48v-.32l-.16-.75-.32-.59-.27-.75-.11-.48.75-.11,2.9-.21,1.61-.38.7-.05.59.21.48.43.97,1.56.32.32,1.88,1.67,1.77,2.15.54.43.54.38.81.11.91-.05,2.47-.43h.64l.48.27.21.43.11.48.11,1.02.21.43.54.21,1.77-.32,4.94-1.56,2.2-.27.48.05.48.11.43.38.27.43.16.48.11.48v.75l-.16,1.18-.11.48-1.29,3.01-.11.54.05.48.32.38.43.21,1.56.48.7.38.43.32.43.38.38.48.21.54.11.54.05.54-.16,1.07-.21,1.02-.11.48.11.48.27.43.48.32h.11l1.5.21h.54l.48-.05.59-.16h.11l.48-.32,2.36-1.99.97-.59.7-.16.59.05,3.55,1.13.59-.05.54-.21.59-.64,1.67-2.58.91-1.07,6.61-5.21,3.22-3.28.7-.59.64-.43,2.69-.97.54-.32.43-.48.27-.7-.16-.54-.38-.43-2.53-1.4-.48-.38-.43-.43-.16-.54.27-.59.7-.75,1.02-.81,3.01-1.67,4.14-1.83.54-.43.59-.59.59-.91.32-.7.16-.59.05-1.13-.05-.54-.11-.54-.59-1.67-.05-.54.11-.48.32-.48.43-.32.54-.27,1.5-.05,3.01.43-.21,2.42.05,1.61.16.48.27.38.27.21.86.54.48.38.48.48.43.81,1.24,3.98.59,1.34.21.64.7,3.6,2.96,7.15.27.32.32.38.43.38.48.32.54.21.48.16.86.16,3.6-.05,5.05.43,1.02.21.59.21.54.27.64.54.32.54.11.54-.11.43-.32,1.07-.16,2.58.05.59.16.64.48.97.48.43.54.32,1.02.38.54.05.54-.05,2.74-.75.48-.11.54.05,2.74.54.48.11.43.27.38.38v.11l-.64,3.71v1.02l1.18,8.38v.48l-.11.54-.16.48-.21.54-.27.48-.7.91-.27.48-.21.48-.05.48.32,4.19-.16,1.07-.97,3.6v1.02l.16.54.27.48,6.07,9.08-2.47.97-3.65,2.15-.81.27-.7.05-1.45-.54-.64-.11-.64-.05-.97.16-.75.21-1.45.59-.43.16-.38.05-1.45.05-.81.16-.64.27-.59.38-.91.91-.64.54-4.57,2.53-5.91,5.32-.75.59-1.29.7-.75.21-.64.05-.54-.16-.48-.27-.43-.38-.38-.54-2.36-4.89-.43-.7-1.34-1.13-.43-.16-.59-.11-.48.16-2.15,1.24-.54.21-.48.16h-2.47l-.75.11-.64.16-1.13.48-.7.21-.48-.05-.27-.11-.38-.27-.32-.43-.27-.48-.7-2.04-.38-.54-.48-.43-.7-.32-.59-.05-.54.05-.54.21-.43.32-.38.43-.21.38-.16.27-.11.43-.05.48.05.54.21,1.02.38,1.45.05.75v.27l-.16.64-1.61,2.96-.64,1.61-.32.48-.54.48-.54.27-.54.16-2.26.32-.75.21-.59.32-.48.38-1.77,1.83-.32.48-.05.48.11.43.38.43.48.21,1.72.54.11.05.21.16.27.43.21.48.16.54v.54l-.27,2.53.05.48.43,1.61.05.48-.16,2.04.05.48.11.54.27.48.32.38.27.16,1.77.97.59.54,1.45,1.93.48.43.54.27.64.11h.54l.54-.05.48-.16.48-.27.43-.32.27-.48.16-.48.59-2.63,1.45-3.92.64-1.07.27-.32.21-.21.43-.21.48-.05h2.15l.81-.11.64-.32h0Z"/>
    <path id="SA01" class="cls-2" d="M272.82,147.51l.27.16,1.99,1.45.97.91.38.54.32.64.64,2.26.27.7.59.7.48.48,6.61,3.82,1.07.32,1.67.16.54.11.48.27.48.43,1.45,1.77,2.2,2.1.97.7.54.21.97.21,3.87.11,1.02.21,1.02.38,1.45.81,5.7,4.14.54.27.59.16.54.11h.54l3.44-.64.59.05.48.16.54.32,3.82,3.76.64.97.43.48.48.32,7.42,2.96.27.21.32.32.32.48.21.48.16.48.11.81.54,34.45.21,1.18.16.38.32.48.38.48,8.22,5.97,5.86,5.91.97,1.18.97,1.61.97,2.26.54,1.83.38,3.06-.16,5.64-6.61,54.12-6.23,48.8-3.01.86-54.33,5.86-5.97-.38-2.2-.54-1.24-.48-1.67-.81-6.45-4.08-.38-.27-9.14-8.44-2.26-3.76-1.29-1.56-.38-.59-.16-.81v-.59l.91-4.25.43-.91,1.34-2.2.21-.43.16-.48v-.11l.05-.48-.05-.43-.16-.54-.32-.59-1.88-2.15-1.4-1.83-.75-1.18-1.24-1.5-3.39-3.06-6.07-9.08-.27-.48-.16-.54v-1.02l.97-3.6.16-1.07-.32-4.19.05-.48.21-.48.27-.48.7-.91.27-.48.21-.54.16-.48.11-.54v-.48l-1.18-8.38v-1.02l.64-3.71v-.11l-.38-.38-.43-.27-.48-.11-2.74-.54-.54-.05-.48.11-2.74.75-.54.05-.54-.05-1.02-.38-.54-.32-.48-.43-.48-.97-.16-.64-.05-.59.16-2.58.32-1.07.11-.43-.11-.54-.32-.54-.64-.54-.54-.27-.59-.21-1.02-.21-5.05-.43-3.6.05-.86-.16-.48-.16-.54-.21-.48-.32-.43-.38-.32-.38-.27-.32-2.96-7.15-.7-3.6-.21-.64-.59-1.34-1.24-3.98-.43-.81-.48-.48-.48-.38-.86-.54-.27-.21-.27-.38-.16-.48-.05-1.61.21-2.42-.05-2.31.27-4.35.43-1.93.05-.97v-.59l-.32-.86-.05-.16v-.38l.16-.43.38-.59,1.07-1.4.05-.11.27-.75.32-1.13-.05-.86.48-.97,1.5-2.36.32-.32.64-.48.54-.21.54-.11.48.11,2.47,1.24,1.02.38,1.67.43,4.19.43h1.13l3.33-.48,1.07.05,1.83.48h.43l.48-.11.54-.27.59-.48.43-.64.38-.91.05-.7-.16-.59-.64-1.07-.21-.48-.11-.54.11-.64.32-.7,2.26-2.96,2.2-2.26.59-.38.54-.27,7.74-1.88.91-.43.59-.38,1.24-1.18,1.67-1.07.48-.54.43-.7.86-1.72.64-.86.38-.38.27-.27.38-.27.48-.21.48-.16.54-.11h1.07l4.94.64,5.54-.38,2.1.16.48-.05.43-.16.27-.38.16-.48.11-.54.05-.75v-.91l-.21-1.5-.27-.91-.32-.75-.64-1.18-.16-.59.11-.75.27-1.18-.11-.81-.05-.11-1.77-2.42-2.04-3.44-.59-.7-1.83-1.83-.38-.54-.27-.48-.11-.54v-.54l.48-3.39v-1.13l-.16-1.18.05-.59.43-.59.54-.32.54-.16.91-.21.27-.11.38-.38,1.72-2.47.86-.97,1.02-.97.59-.43.59-.32,1.13-.38.54-.27.43-.38.32-.43.16-.43.11-.32v-.43l-.05-.48-.16-.54-.21-.59-.27-.54-.38-.54-.48-.48-.97-.81-1.02-.75-1.5-.64-.16-.32-.21-.91-.05-.59.05-.54.05-.48.27-.81.32-.86.64-1.02.59-.81.75-.64.32-.27h.05l1.34-.54.43.38.11.16.05.05.32.43.43.32.48.21.54.05.59-.27.48-.27.97-1.4h0Z"/>
    <path id="SA05" class="cls-2" d="M205.7,222.97l-1.99-1.5-.38-.38-.32-.48-.43-1.02-1.24-4.84-.38-.97-.43-.7-.05-.05-.21-.21-.38-.16-3.01-.81-.54-.27-.54-.43-.43-.7-.21-.59-.11-.59.48-6.66-.11-.59-.16-.64-.38-.48-.43-.32-1.02-.32-3.06-.75-.59-.21.91-.81.91-.32,1.4-.16.81-.21,3.71-2.04.86-.38.75-.21,2.26-.21.54-.16.38-.38.16-.38-.11-.43-.11-.32-1.07-1.99-.16-.59-.05-.54.11-.64.32-.54.59-.64.54-.27.48-.05.38.11,1.83.7.59.16h.54l.43-.11.27-.43.11-.43v-.43l-.05-.21-.43-2.1v-1.07l.11-.48.38-1.13.54-1.07.32-.38.48-.27h.48l.54.05.59-.05,1.07-.27.48-.21.32-.48.16-.54.38-.91.64-1.13,2.74-3.17,6.07-4.94,2.79-1.83,5.32-2.26.81-.54.48-.59.32-.59.97-2.1.81-1.02,1.13-1.13,1.77-1.13,8.76-4.51,1.18-.43.54-.16h.54l.48.05.54.21.54.27.86.75,1.67,1.77,2.96,2.42,1.02.59.54.16,2.42.16,1.56.32h.54l.43-.11.43-.27.32-.21,1.77-2.47.97-.91,1.5.64,1.02.75.97.81.48.48.38.54.27.54.21.59.16.54.05.48v.43l-.11.32-.16.43-.32.43-.43.38-.54.27-1.13.38-.59.32-.59.43-1.02.97-.86.97-1.72,2.47-.38.38-.27.11-.91.21-.54.16-.54.32-.43.59-.05.59.16,1.18v1.13l-.48,3.39v.54l.11.54.27.48.38.54,1.83,1.83.59.7,2.04,3.44,1.77,2.42.05.11.11.81-.27,1.18-.11.75.16.59.64,1.18.32.75.27.91.21,1.5v.91l-.05.75-.11.54-.16.48-.27.38-.43.16-.48.05-2.1-.16-5.54.38-4.94-.64h-1.07l-.54.11-.48.16-.48.21-.38.27-.27.27-.38.38-.64.86-.86,1.72-.43.7-.48.54-1.67,1.07-1.24,1.18-.59.38-.91.43-7.74,1.88-.54.27-.59.38-2.2,2.26-2.26,2.96-.32.7-.11.64.11.54.21.48.64,1.07.16.59-.05.7-.38.91-.43.64-.59.48-.54.27-.48.11h-.43l-1.83-.48-1.07-.05-3.33.48h-1.13l-4.19-.43-1.67-.43-1.02-.38-2.47-1.24-.48-.11-.54.11-.54.21-.64.48-.32.32-1.5,2.36-.48.97h0Z"/>
    <path id="SA06" class="cls-2" d="M169.69,113.76l2.69,1.13,1.34.32h.54l12.31-2.85,1.67-.21.97.05.75.11,5.64,1.83.81.16h.59l.59-.11,2.85-.7,2.47-.16.59.05,7.95,1.83,1.07.43.48.32.54.48,2.79,3.39.7.54.81.54,1.13.43.86.11.75-.05.7-.16.64-.27,1.88-1.02.64-.32.7-.11h.81l.48.27.21.21.05.21.11,1.99.05.32.16.59.32.81.54.59.81.54.64.16.59.05,2.31-.21.81.05.64.21,2.47,1.29.91.32.59.05.54-.11.91-.43,2.69-1.77.64-.27.81-.05.64.21.54.43.38.54,3.92,7.09,1.93,5.16.81,1.13.59.54.59.48.81.38.64.21,7.15,1.13.81.27,1.02.59.54.38,3.87,3.49.59.7.32.75-1.34.54h-.05l-.32.27-.75.64-.59.81-.64,1.02-.32.86-.27.81-.05.48-.05.54.05.59.21.91.16.32-.97.91-1.77,2.47-.32.21-.43.27-.43.11h-.54l-1.56-.32-2.42-.16-.54-.16-1.02-.59-2.96-2.42-1.67-1.77-.86-.75-.54-.27-.54-.21-.48-.05h-.54l-.54.16-1.18.43-8.76,4.51-1.77,1.13-1.13,1.13-.81,1.02-.97,2.1-.32.59-.48.59-.81.54-5.32,2.26-2.79,1.83-6.07,4.94-2.74,3.17-.64,1.13-.38.91-.16.54-.32.48-.48.21-1.07.27-.59.05-.54-.05h-.48l-.48.27-.32.38-.54,1.07-.38,1.13-.11.48v1.07l.43,2.1.05.21v.43l-.11.43-.27.43-.43.11h-.54l-.59-.16-1.83-.7-.38-.11-.48.05-.54.27-.59.64-.32.54-.11.64.05.54.16.59,1.07,1.99.11.32.11.43-.16.38-.38.38-.54.16-2.26.21-.75.21-.86.38-3.71,2.04-.81.21-1.4.16-.91.32-.91.81-1.99-.54-6.5-1.02-3.98.16-.64.16-.81.27-.64.38-.54.48-1.67,2.15-.48.43-.43.32-.43.21-.32.16-.43.11-.48.11-1.02.11-2.74-.05-1.18.16-5.75,2.04-.54.11h-.54l-.54-.05-.48-.16-.43-.21-.27-.21-.38-.38-.32-.48-.27-.59-.11-.7.21-6.83-.43-2.58-.7-2.85-.11-.64v-.75l1.29-8.71-.05-.54-.21-.54-.48-.43h-.59l-1.07.21-.54-.05-.48-.16-.48-.43-.21-.54-.05-.64.32-.75.81-1.56.11-.32.21-.91v-.59l-.05-.64-.11-.54-.43-1.07.38-.27.38-.54.43-.86,1.34-4.19.7-1.4,1.07-1.45,2.85-2.47.43-.48.38-.54.21-.54.05-.54-.11-.54-.48-.59-.54-.48-2.79-1.5-.91-.59-.32-.38-.38-.48-.27-.48-2.53-10.26-.21-.59-.32-.54-1.34-1.34-2.74-2.26-1.4-.7-.7-.48-.54-.54-.11-.11-.48-.59-.86-.48-1.29-.48-7.47-1.77-.54-.21-.38-.27-.43-.54,2.53-2.79.54-.38.59-.38,8.76-4.19,4.03-1.13,8.6-4.89,8.81-3.65.48-.05,1.45.38h0Z"/>
    <path id="SA11" class="cls-2" d="M204.25,323.14l-1.13,3.82.05.64.16.75.59.59.27.43.11.59-.16.59-.54.75-.48.48-2.74,1.93-.54.48-.32.64-.21.7-.11,1.72-.38,1.24-2.31,5.11-.64.32-.81.11h-2.15l-.48.05-.43.21-.21.21-.27.32-.64,1.07-1.45,3.92-.59,2.63-.16.48-.27.48-.43.32-.48.27-.48.16-.54.05h-.54l-.64-.11-.54-.27-.48-.43-1.45-1.93-.59-.54-1.77-.97-.27-.16-.32-.38-.27-.48-.11-.54-.05-.48.16-2.04-.05-.48-.43-1.61-.05-.48.27-2.53v-.54l-.16-.54-.21-.48-.27-.43-.21-.16-.11-.05-1.72-.54-.48-.21-.38-.43-.11-.43.05-.48.32-.48,1.77-1.83.48-.38.59-.32.75-.21,2.26-.32.54-.16.54-.27.54-.48.32-.48.64-1.61,1.61-2.96.16-.64v-.27l-.05-.75-.38-1.45-.21-1.02-.05-.54.05-.48.11-.43.16-.27.21-.38.38-.43.43-.32.54-.21.54-.05.59.05.7.32.48.43.38.54.7,2.04.27.48.32.43.38.27.27.11.48.05.7-.21,1.13-.48.64-.16.75-.11h2.47l.48-.16.54-.21,2.15-1.24.48-.16.59.11.43.16,1.34,1.13h0Z"/>
  </g>
  <g id="features-2" data-name="features">
    <g>
      <path id="SA04-2" data-name="SA04" class="cls-1" d="M329.41,409.72l7.31-59.55,6.23-48.8,6.61-54.12.16-5.64-.38-3.06-.54-1.83-.97-2.26-.97-1.61-.97-1.18-5.86-5.91-8.22-5.97-.38-.48-.32-.48-.16-.38-.21-1.18-.54-34.45-.11-.81-.16-.48-.21-.48-.32-.48-.32-.32-.27-.21-7.42-2.96-.48-.32-.43-.48-.64-.97-3.82-3.76-.54-.32-.48-.16-.59-.05-3.44.64h-.54l-.54-.11-.59-.16-.54-.27-5.7-4.14-1.45-.81-1.02-.38-1.02-.21-3.87-.11-.97-.21-.54-.21-.97-.7-2.2-2.1-1.45-1.77-.48-.43-.48-.27-.54-.11-1.67-.16-1.07-.32-6.61-3.82-.48-.48-.59-.7-.27-.7-.64-2.26-.32-.64-.38-.54-.97-.91-1.99-1.45-.27-.16-.27-.32-.59-.91-.21-.54-.11-.48v-.48l.05-.43.21-.75.59-1.5.48-.86,3.87-4.73,1.13-1.67,8.17-15.42,1.4-2.1,1.83-2.04,2.26-2.1,3.28-1.83,10.96-4.14.32-.32.38-.11,1.02-.21,1.02-.21,2.58.32,2.58.32,2.63.32,2.58.32,2.31.27,2.31.32,2.31.32,2.31.32,1.29.16.27.48,1.13,1.88,1.29,3.55.11.7.11,1.4.21.81.32.81.32.59.54.43.48.38.48.48.16.7h1.24l4.14-.05,4.14-.05,4.08-.05,4.14-.05.54.59.32.21.59.27.05.21.21,1.13v.91l-.16.59-.54-.21-.11.16-.05.11v.11h.43l.38-.11.32-.21.11-.43.27.21v.21l-.27.48-.11.7-.05.32.16.59.27.54,1.93,2.15.11.32-.32.48-.16.48v.54l.11.54.21.43.75,1.02.16.27-.05.32v.11l.38.21.75.32.27.05.81-.05.21.11.43.21.27.05.11.11v.16l-.05.16-.11.11-.16.11h-.16l-.16-.11-.38.21-.11.16v.38l.21.38.48.48.54.38.43.21v.11l.54.81.91.91.11.27-.21.54v.64l.11.11-.05.21-.21.38-.32.43-.32.27.21-.32v-.21l-.05-.64.05-.38.16-.21.05-.21-.11-.38-.32.38-.38.97-.38.27.43-1.13.05-.32-.16-.48-.16.05-.21.38-.43,1.83v.43l-.05.05-.11.16.05.16.27-.05.11-.11.16-.43.16-.16v1.18l.11.27.21-.05.21-.21.11-.27.21.27v.38l-.05.43.32.11.21-.16.16-.21.11-.27v.43l-.05.16-.11.11.11.27v.16l-.16.05-.27.05.27.54.05.16-.54-.27h-.27l-.16.27.48.21h.43l.32-.27.21-.48h.16l.16.38-.27.32-.11.48.11.43h.43l.16-.16-.11-.21-.16-.16-.05-.16.16-.27.27-.11.54-.16.43-.05.32.16.81.81.86.43.21.32-.43.32.32.11h.32l.11-.21-.11-.27.38.16.43.11.86.11.21-.11.38-.21.21-.05h.21l.48.16h.27l.43.16.38.32.54.75.16.16.16.11.16.11.16.21.05.16.05.48.05.21h-.32l-.16-.11-.05-.27.05-.32h-.16l-.48.59-1.29-.16-.43.48h-.21l-.16-.48h-.38l-.86.48.16.11.54.11.27.16.16.11.16.16.16.11.27.16.16.16.11.11.16-.05.38-.38v-.05l.11-.11.05-.16.11-.11.11.11.21.16.21.11-.16.38-.21.16-.27.11-.16.27-.05.27-.05.64-.05.32.27-.05.27-.16.27-.21.21-.21.27-.05.32.05.48.27-.21.54.11.48.16.54.11.54-.05,1.07.11.48.38-.05v.48l.16.16.27-.05.21-.21-.11-.43.21-.21.38-.05.32.32.16-.21.11.32-.05.27-.16.27-.05.32-.11.21-.16.11h-.27l-.27-.05.21.32.54.11.21.27.21-.11.16-.21.27-.54v.11h.05l.11.05-.27.48.21.05.59-.16.38.05.59.27h.38l-.59-.64-.21-.43.32-.32.32-.05.21.16.21.16.21.11.16-.11.48-.43-.11.38-.21.64v.38l.16.59.11.32.11.16.43.21.43.48,1.34,2.1.7.86.21.16.64.27.21.21.32.32.27.21,1.4.64.91.64.54.05h.54l.54.05.75.43.64.64,1.18,1.61.38.7,1.72,1.24.38.43.05.64-1.02-.91-.59-.38-1.24-.16-.32-.11-.21-.27-.21-.97-.21.16-.21.43-.11.43v.64l.11.27.16.27.21.21.05.16-.11,1.56.05.43.64,1.99.27.43.38.38.38.27,1.99.7.7.59.43.86.16,1.18v2.85l-.11.59-.21.54-.48.27v-.38l-.16-.16-.27.11-.21.27.16.64-.05,1.02-.21,1.02-.21.7-.32-.27-.11-.38v-.43l-.05-.38-.16-.32-.21-.16-.21-.16-.16-.21-.11-.11h-.11l-.11-.05-.05-.75-.05-.16-.05-.16-.21-.27-.27-.27-.32-.21-.21.11-.64,1.18-.16.16-.27.16.11.32.27.38.11.11.05.21.21.32.05.27-.05.05-.16.05-.16.11-.11.21.05.38.11.38v.38l-.16.38.38.16.38-.21.16-.38-.11-.43.21.05.16.11.27.38.11.05.11-.05.05.05.05.16v.27h.21l.59.16.27.38.11.43.27.48v.16l-.48.48.27,1.18.54,1.34.43.86,1.4,1.72.59.97.27,1.18h-.16l-.43-1.18-.16-.21-.27-.05-.32-.16-.32-.21-.27-.43-.38-.27-.32-.05-.11.48.21.38.59.43.16.27.11-.27.05-.11h.16l.86,1.83,2.69,3.44.59.54-.05-.32-.16-.43-.05-.32.16-.11.27-.16.11.05.11.59.11.16.11.05.05.05.16.38.43.21.81.21.21.27.43,1.13-.16.16.27.43.32.64.27.75.11.59v.32l-.16.54v.32l.05.38.11.21.11.16.11.43.32.64.11.38-.16,1.07.16,1.02.21.59.27.32.16-.48.59.48.64.81.27.43.38.38.48,1.67.54.38.48.43.21,1.02.05,1.56.05.27.21.48.27.43.21.21h.38l.43-.43.05-.05.05.05,1.67,2.74,1.07,1.24,1.18.54,1.4.16h1.29l.38-.11.86-.27,1.56-1.29.05.21h.16l1.02-.16.21.11.05.05.05.11.11.11.16.16.27-.21.05.16v.05l-.05.21-.05.21-.16.05-.16.16.05.27.11.21.05.05-.05.86.16.16.38-.16.32-.21.64-1.13.05-.11.27-.21.27-.21.21-.32v-.59l.32.21h.43l.38.11.11.32.16.32.27.05h.38l.32.21v.21l-.38.16-.48.16-.38.21-.21.38h-.05l-.54.59-.11.21-.11.32-.11.16-1.4,1.02-.21.32-.05.11-.32.43-.11.21-.05.27-.05.59-.05.21v.48l-.05.05-.27-.05-.11.05-.05.05v.86l.11.11,1.45.16.54-.16.27-.16.21-.16.21-.16.32-.05,1.56.32.38.32.7.81,1.02.27.11,1.02v.64l-.05,1.61.16.64.32.59,1.34,1.72,1.18,1.61,1.24,1.56,1.18,1.56,1.24,1.61,1.18,1.56,1.24,1.56,1.18,1.56,1.24,1.56,1.18,1.61,1.24,1.56,1.18,1.56,1.24,1.56,1.18,1.56,1.24,1.56,1.18,1.56,1.24,1.56,1.24,1.61.48.43.54.16,3.76.54,3.22.43,3.22.43,3.22.43,3.22.43,3.22.43,3.22.43,3.22.43,3.22.43,3.22.43,3.22.43,3.22.43,3.22.43,3.22.43,3.22.43,3.22.43,3.22.43,3.17.43.32-.11,1.56-1.99,1.45,2.47,1.88,3.12,1.88,3.12,1.88,3.17,1.88,3.12,1.24,2.04.21.54v.59l-.86,2.85-.11.32-.16.54-.43,1.4-.64,2.15-.86,2.79-1.02,3.33-1.18,3.71-1.18,3.92-.32.97-.97,3.12-1.29,4.08-1.18,3.92-1.18,3.71-1.02,3.28-.86,2.79-.64,2.15-.43,1.34-.16.54-.75,2.36-3.49,1.24-3.98,1.4-3.98,1.4-3.92,1.4-3.98,1.45-3.98,1.4-3.98,1.4-3.98,1.4-3.98,1.4-3.98,1.4-3.98,1.4-3.92,1.4-3.98,1.45-3.98,1.4-3.98,1.4-3.98,1.4-3.98,1.4-2.47.86-.11.05-.43.05-3.22.43-3.71.54-3.71.54-3.71.54-3.71.54-3.71.54-3.76.48-3.71.54-3.71.54-3.71.54-3.71.54-3.71.48-3.71.54-3.71.54-3.76.54-3.71.54-1.72.21-1.99.32-3.01.38-1.83.7-.16.11-.43.21-.54.27-.54.27-.54.27-.54.27-.16.05-.43.21-.48.27-.64.32-.48.27-3.71,1.88-4.46,2.31-3.98,2.04-2.96,1.5-.16.16-.38.21-1.77,2.26-2.1,2.69-3.71,4.57-3.44,4.35-2.26,2.85-.38.75-1.13,3.01-1.56,4.3-.64.86v.05h0ZM378.97,152.24l.43.21,1.24.32,1.18.38-.43.16-.32-.11-.38-.16-.38-.11-.38.05-.38.16-.32.21-.27.27-.21-.16h-.11l-.16-.11-.16-.05v-.16l.32-.16.05-.11-.11-.16-.11-.11-.05-.11-.27-.11-.27.05-.21.05-.21.05-.32.16-.27.27-.27.43-.16.43-.05-.7.43-.64.64-.48.7-.16.27.05.21.11.32.21h0Z"/>
      <path id="SA08-2" data-name="SA08" class="cls-1" d="M306.2,106.88l-.32.32-10.96,4.14-3.28,1.83-2.26,2.1-1.83,2.04-1.4,2.1-8.17,15.42-1.13,1.67-3.87,4.73-.48.86-.59,1.5-.21.75-.05.43v.48l.11.48.21.54.59.91.27.32-.97,1.4-.48.27-.59.27-.54-.05-.48-.21-.43-.32-.32-.43-.05-.05-.11-.16-.43-.38-.32-.75-.59-.7-3.87-3.49-.54-.38-1.02-.59-.81-.27-7.15-1.13-.64-.21-.81-.38-.59-.48-.59-.54-.81-1.13-1.93-5.16-3.92-7.09-.38-.54-.54-.43-.64-.21-.81.05-.64.27-2.69,1.77-.91.43-.54.11-.59-.05-.91-.32-2.47-1.29-.64-.21-.81-.05-2.31.21-.59-.05-.64-.16-.81-.54-.54-.59-.32-.81-.16-.59-.05-.32-.11-1.99-.05-.21-.21-.21-.48-.27h-.81l-.7.11-.64.32-1.88,1.02-.64.27-.7.16-.75.05-.86-.11-1.13-.43-.81-.54-.7-.54-2.79-3.39-.54-.48-.48-.32-1.07-.43-7.95-1.83-.59-.05-2.47.16-2.85.7-.59.11h-.59l-.81-.16-5.64-1.83-.75-.11-.97-.05-1.67.21-12.31,2.85h-.54l-1.34-.32-2.69-1.13,3.28-3.28.38-.54.21-.54.11-.38.05-.16.59-8.87.11-.54.16-.59.32-.54.43-.54.59-.59,2.53-1.93,19.35-12.09,1.93-1.56,1.02-1.07.43-.54.11-.54-.16-.54-.43-.48-3.49-2.69-1.13-1.07-.38-.59-.7-1.18-1.02-2.47-.32-.43-.59-.75-.43-.48-.86-.54-.7-.27-2.74-.38h-1.88l-1.29-.16-.75-.27-.64-.32-4.62-3.71-.75-.38-.86-.21h-2.31l-1.4.21-12.68-.32-2.15-.48-.81-.32-.59-.32-1.72-1.5-.54-.43-.54-.32-.75-.16-15.69-2.47-3.06-.05-7.15,1.07-10.32,1.02-1.13-.05-1.02-.27-.54-.21-.54-.27-.48-.43-.38-.54-.81-1.4-.43-.91-.64-1.18-.75-1.07-.7-.7-2.04-1.45-.38-.48-.16-.43-.05-.38-.05-.16-.11-.7-.11-1.67.11-.91,2.79-10.37,4.35-1.29,5.21-1.5,5.21-1.5,5.21-1.56,2.63-.75.81-.32,2.79-2.63.43-.38.21-.05h.11l.05-.05h.05l.05-.05,4.62.81,4.57.81,4.57.75,4.62.81,1.83.32,7.95,1.56,1.24.48,1.29.75,2.36,1.4,2.04,1.24,2.04,1.24,2.04,1.18,2.04,1.24,2.04,1.24,1.99,1.18,2.04,1.24,2.04,1.24,2.04,1.18,2.04,1.24,2.04,1.18,2.04,1.24,1.99,1.24,2.04,1.18,2.04,1.24,2.04,1.18,2.04,1.24,1.56,1.34,1.99,1.72,1.93,1.67,1.93,1.72,1.99,1.72,2.2,1.88,2.2,1.93,2.2,1.93.43.38,1.72,1.5h.05l2.42,2.04,2.04,1.67,2.04,1.67,2.04,1.67,2.04,1.67,2.69,2.15,2.63,2.15,2.69,2.2,2.63,2.15,1.13.91,1.56,1.24,2.63,2.15,2.63,2.15,2.69,2.15,2.2,1.83,2.2,1.77,2.2,1.77,2.2,1.83,1.83,1.4.11.05.16.11.16.05.16.05,2.1.16,1.88.16,1.83.21,1.83.16,1.88.16,2.36.21,2.36.21,2.36.21,2.42.21,2.36.21,2.36.21,2.36.21,2.36.21,1.77.16,1.77.16,1.77.16,1.77.16,2.42.21,1.02-.21.64-.11h0Z"/>
      <path id="SA12-2" data-name="SA12" class="cls-1" d="M110.41,34.87l-2.79,10.37-.11.91.11,1.67.11.7.05.16.05.38.16.43.38.48,2.04,1.45.7.7.75,1.07.64,1.18.43.91.81,1.4.38.54.48.43.54.27.54.21,1.02.27,1.13.05,10.32-1.02,7.15-1.07,3.06.05,15.69,2.47.75.16.54.32.54.43,1.72,1.5.59.32.81.32,2.15.48,12.68.32,1.4-.21h2.31l.86.21.75.38,4.62,3.71.64.32.75.27,1.29.16h1.88l2.74.38.7.27.86.54.43.48.59.75.32.43,1.02,2.47.7,1.18.38.59,1.13,1.07,3.49,2.69.43.48.16.54-.11.54-.43.54-1.02,1.07-1.93,1.56-19.35,12.09-2.53,1.93-.59.59-.43.54-.32.54-.16.59-.11.54-.59,8.87-.05.16-.11.38-.21.54-.38.54-3.28,3.28-1.45-.38-.48.05-8.81,3.65-8.6,4.89-4.03,1.13-8.76,4.19-.59.38-.54.38-2.53,2.79-.91-.75-.32-.16-.38-.11-.59-.05-.81.16-.7.16-2.42,1.24-.59.27-.54.05-.59-.05-.48-.32-.38-.43-.64-1.56h-1.02l-.43-.05-.48-.16-.81-.48-.54-.11-.75.21-.59.27-.75.27-.86.05-4.62-.48-1.45-.32-2.53-.86-1.07-.64-1.56-1.29-.38-.48-.38-.54-.27-.54-.38-.91-.27-1.13-.16-1.5-.05-2.36.21-4.25-.11-.59-.21-.54-.43-.32-.54-.11-.48.16-1.45,1.4-1.56.97-.48.43-.32.54-.27.54-.97,2.42-.27.54-.38.48-.54.27-.64.16-3.98-.27-1.93-.38-3.55-1.18-1.34-.21h-1.83l-5.54,1.24-2.58.97h-.91l-.97-.32-.16-.11-.16-.16-5.97-7.79-.75-.7-1.02-.7-.54-.27-4.57-1.13h-1.5l-1.83.32-3.06.21-4.78.91-.97.32-.81.38-.81.81-.38.21-.59.11-3.33-.32-1.88-.48-.81-.05-.75.16-1.99.05v-.11l-.38-.16v-.16l.32-.59.38-1.07.16-1.13-.27-.64v-.38l.27-.48.21-.59.48-2.36.11-.38.27-.59-.05-.16.05-.38.21-.21.54-.32-.16-.43-.05-.59.05-.38.32.16v-.16l.05-.05h.11l-.21-.38-.05-.43.11-.43,2.58.48,2.74.48,3.6.59,3.22.59,3.44.59,2.74.48,1.34.21,2.69.48,2.42.38h.59l.59-.27,2.53-2.04,2.47-2.04,2.69-2.26,1.77-1.5,1.5-2.53,1.45-2.42,1.07-1.83,1.29-2.2.54-.59.64-.32,1.99-.43,2.1-.43,3.33-.7,3.28-.64,3.12-.64,2.74-.59.48-.43,1.02-2.53.81-1.88.81-2.04.7-1.67.32-.48.54-.43,2.47-1.45,2.85-1.56,1.67-.97.16-.11h.05-.05l-1.13-1.34-2.53-3.01-2.58-3.01-2.53-3.01-2.53-3.01-.11-.05-.05-.11-.05-.11-.11-.05-3.01-3.28-2.96-3.22-.05-.05-3.01-3.28-3.01-3.28.86-.27,4.89-1.5,5.7-1.72,5.75-1.72,1.4-.38,4.35-1.34.86-.21h0Z"/>
      <path id="SA10-2" data-name="SA10" class="cls-1" d="M336.72,350.18l-7.31,59.55h-.05l-.48.32-.48.27-.48.27-.16.16-1.02.59-2.85,1.67-.54.21h-3.82v.05l-.16-.05h-.32l-.27-.16-1.99-2.74-1.67-2.42-1.5-2.1-.86-.48-5.16.7-3.87.54-5.59-.59-4.41-.43-5.75-.59-4.94-.54-1.02-.32-3.82-2.2-1.29-.27-3.92-.05h-3.44l-4.68-.05h-.05l-.43.11-1.4.54-.05.05h-.7l-1.56-.32-1.45-.05-2.2.21-1.77.43-.48.05-.97-.32-.48-.05-.32.27-.21.38-.11.21-.38.43-.43.21-.59-.11-.91-.43-.38-.05-.48.27h-.05l-.32.43-.11.21-.21.27-.32.32-.59.11-.27-.05-.11-.11-.11-.11-.05-.16.05-.48v-.27l-.16-.11-.54.21h-.43l-.64-.05-.27-.05-.86.11h-.43l-.43-.16-.54-.38-.43-.38-1.18-1.34v-.75l.64-2.47-.05-1.29-.48-1.45-.05-.59v-.7l.21-.97.59-5.37-.05-1.02-.21-1.02-.38-1.07-.21-1.07v-.59l.21-.7.48-.91.59-.75,3.76-3.98,2.58-2.26.75-.75.27-.43.27-.48.54-1.34.32-.59.54-.54.54-.38.54-.21,1.61-.32,1.02-.38,1.07-.54,1.02-.7.43-.43.32-.43.32-.48.21-.64.16-.64.05-.91v-.86l-.11-1.07-.81-3.12v-.59l.16-.64.59-.91.54-.48,1.5-.81.38-.27.21-.32.16-.54.11-.81v-3.12l6.45,4.08,1.67.81,1.24.48,2.2.54,5.97.38,54.33-5.86,3.01-.86h0Z"/>
      <path id="SA14-2" data-name="SA14" class="cls-1" d="M261.86,350.6v3.12l-.11.81-.16.54-.21.32-.38.27-1.5.81-.54.48-.59.91-.16.64v.59l.81,3.12.11,1.07v.86l-.05.91-.16.64-.21.64-.32.48-.32.43-.43.43-1.02.7-1.07.54-1.02.38-1.61.32-.54.21-.54.38-.54.54-.32.59-.54,1.34-.27.48-.27.43-.75.75-2.58,2.26-3.76,3.98-.59.75-.48.91-.21.7v.59l.21,1.07.38,1.07.21,1.02.05,1.02-.59,5.37-.21.97v.7l.05.59.48,1.45.05,1.29-.64,2.47v.75l-.43-.48-.97-.59-.54-.21-1.18-.54-.38-.11h-.81l-.43-.11-.48.05-.54.21-1.13.7-.7-1.07-1.24-1.83-.38-.48-.48-.43-1.77-.64-.43-.32-.38-.48-.7-1.56-.32-.48-.59-.59-1.83-1.45-.38-.64-.11-.59.05-1.02-.11-.43-.32-.38-.91-.16h-.16l-1.07.64-.97.7-.43.43-.32.48-.48.97-1.07,4.03-.21.48-.32.32-.43.21h-.48l-.48-.21-.59-.38-2.15-2.26-.38-.59-.32-.59-.16-.48-.27-.54-.48-.43-.64-.38-.54-.11-3.65-.05-.54-.16-.48-.27-.48-.59-.27-.48-.27-.91-.16-.21-.38-.43-.59-.32-.54-.16-.48-.05-1.56.21-.48-.11-.38-.38-.21-.64v-1.13l.48-2.9v-.54l-.11-.43-.21-.38-.91-.27-2.63.21.81-3.12.11-.64v-.64l-.16-.75-1.61-4.84-.27-.48-.38-.38-.43-.27-.48-.16-1.02-.21-.97-.05h-2.53l-.48-.11-.43-.27-.43-.38-.27-.48-.16-.54-.16-.48-.11-1.02.16-5.7.05-.48.21-.21.38.16.38.32.48.21.43.05.43-.21,1.18-.91,1.02-.59.54-.16.48-.11h.54l2.58.27h.32l.32-.11.43-.16.43-.32.32-.43.21-.48.81-2.53v-.59l-.16-.59-.97-1.67-.11-.48-.05-.64v-.59l.7-3.22.05-.48v-.48l-.16-.54-.27-.48-.38-.43-.27-.21-.32-.16-.48-.05-.97.05-1.02.43,2.31-5.11.38-1.24.11-1.72.21-.7.32-.64.54-.48,2.74-1.93.48-.48.54-.75.16-.59-.11-.59-.27-.43-.59-.59-.16-.75-.05-.64,1.13-3.82.43.7,2.36,4.89.38.54.43.38.48.27.54.16.64-.05.75-.21,1.29-.7.75-.59,5.91-5.32,4.57-2.53.64-.54.91-.91.59-.38.64-.27.81-.16,1.45-.05.38-.05.43-.16,1.45-.59.75-.21.97-.16.64.05.64.11,1.45.54.7-.05.81-.27,3.65-2.15,2.47-.97,3.39,3.06,1.24,1.5.75,1.18,1.4,1.83,1.88,2.15.32.59.16.54.05.43-.05.48v.11l-.16.48-.21.43-1.34,2.2-.43.91-.91,4.25v.59l.16.81.38.59,1.29,1.56,2.26,3.76,9.14,8.44.38.27h0Z"/>
      <path id="SA09-2" data-name="SA09" class="cls-1" d="M198.18,380l2.63-.21.91.27.21.38.11.43v.54l-.48,2.9v1.13l.21.64.38.38.48.11,1.56-.21.48.05.54.16.59.32.38.43.16.21.27.91.27.48.48.59.48.27.54.16,3.65.05.54.11.64.38.48.43.27.54.16.48.32.59.38.59,2.15,2.26.59.38.48.21h.48l.43-.21.32-.32.21-.48,1.07-4.03.48-.97.32-.48.43-.43.97-.7,1.07-.64h.16l.91.16.32.38.11.43-.05,1.02.11.59.38.64,1.83,1.45.59.59.32.48.7,1.56.38.48.43.32,1.77.64.48.43.38.48,1.24,1.83.7,1.07-.91.59-1.4,1.18-.59.54-1.13,1.4-.05.11,1.29.43.48.38.16.38.05.11-.05.48-.54.27-.54.16-.59.21-.48.43-.16.43.05.59-.16.48-.48.97-.11.48.05.43.21.38.11.54v.54l-.11.48-.38.91-.16.59.11.43.48.91.27.91.27.21.86.21.27.21.16.27v.32l-.05.21-.21.16-.21.11-.21.11-.32.54.05.32.21.38.16.54v.05l-.16.43-.21.05-.16.05-.54-.16-.43-.11-.54-.11-.32.11-.11.32-.05.54-.05.43-.59,1.61-.32.38-.43.32-.05.05-1.02.59-.32.16-.27.05-.64.11-.27.11-.05.32.05.38v.38l-.16.38-.64.43-.81.32-.16.11-.91.32-.05-.11v-.86l-.16-.27.32-.75-.16-.48-1.13-1.24-.27-.59-.05-.43v-1.07l.27-1.02v-.43l-.43-.11.16-.21-.27-.27-.21-.38-.05-.32.21-.16-.11-.27-.64-.59-.16-.16-.32-.43-.54-.59-.16-.16-.7-.38-.27-.05-.27.16-.75-1.13.32-1.07-.16-.38v-1.18l-.11-.43-.21-.11-.27-.16-.05-.27-.21-.21-.43-.05h-.81l-.27-.27-.21-.38-.32-.7-.11-.32-.11-.86-.11-.32-.21-.21-1.02-.43.05.43.16.38.43.7-.48.27.21,1.61-.21.43-.16-.48v-1.67l-.11-.54-.32-.91-.38-3.28-.16-.59-.11-.43.16-1.24-.05-.48-.16-.59-.16-.21-.21-.05-.27-.05-.16-.05-.11-.11-.05-.21-.16-.27-2.47-2.15-.21-.05-.05.11-.16-.21-.27-.48-.43-.64-.16-.43-.11-.21-.16-.05-.54.11-.21-.05-.11-.32-.11-.21-1.02-1.02-.05.05-.11.05-.21.05h-.11l-.21-.21-.7-1.02-.27-.16-1.34-1.29-.54.21-.86-.59-.54.05-.21-.64-.38-.38-.54-.38-.43-.43-.97-1.24-.16-.43.05-.32.05-.27-.05-.16-.27-.11-.21-.05v-.43l-.05-.16-.97-.86-.38-.54.21-.43-.11-.16.43-1.02.21-.43.38-.43.43-.27,1.45-.81.43-.43.27-.38.43-.97h0ZM207.8,419.13v.32l-.05.43-.16.54.05.43.21.7-.21.48v.05l-.54-.05-.64-.75-.54-.21h-.48l-.27-.27.7-.27.38-.27-.16-.54-.59-.32-.59.11-.7.05-.48.11-.43.27-.38.21-.43-.16-.54-.48-.38-.38-.54-.11-.59-.43-.59-.48-.27-.48-.16-.75-.38-.27h-.43l-.27-.05.05-.16v-.54l-.38-.43-.21-.48.05-.43.32.11.16.16.27.21.91.43.48.59.27.32.05.59v.27l.43.48.38.32.16.11.86-.11.27.48h.43l.48-.16h.43l.27.27v.27h.27l.7-.27-.64-.16-.38-.54.32-.43.16-.7.16-.21.32-.05.11.05.21.11.64.38v.38l.32.54-.05.27.59.05.16.48.86.38h0ZM201.62,417.03l-.32-.27-.38-.43-.59-.75-.48-.7-.16-.27.27-.21.54-.05.43-.11.27-.27.21-.43h.27l.05.05.11-.48-.16-.59-.32-.16-.32-.16h-.27l-.54-.11-.27-.05-.11-.11.21-.16.21-.11.05.21.75.05.59.27.38.43.05.11.11.64v.48l-.11.54.11.43.75.16.21.54-.97.05-.27.32.11.43.59.21.32.16.43.21.16.59v.27l-.7-.43-.86-.21-.38-.11h0Z"/>
      <path id="SA07-2" data-name="SA07" class="cls-1" d="M37.49,111.93l1.99-.05.75-.16.81.05,1.88.48,3.33.32.59-.11.38-.21.81-.81.81-.38.97-.32,4.78-.91,3.06-.21,1.83-.32h1.5l4.57,1.13.54.27,1.02.7.75.7,5.97,7.79.16.16.16.11.97.32h.91l2.58-.97,5.54-1.24h1.83l1.34.21,3.55,1.18,1.93.38,3.98.27.64-.16.54-.27.38-.48.27-.54.97-2.42.27-.54.32-.54.48-.43,1.56-.97,1.45-1.4.48-.16.54.11.43.32.21.54.11.59-.21,4.25.05,2.36.16,1.5.27,1.13.38.91.27.54.38.54.38.48,1.56,1.29,1.07.64,2.53.86,1.45.32,4.62.48.86-.05.75-.27.59-.27.75-.21.54.11.81.48.48.16.43.05h1.02l.64,1.56.38.43.48.32.59.05.54-.05.59-.27,2.42-1.24.7-.16.81-.16.59.05.38.11.32.16.91.75.43.54.38.27.54.21,7.47,1.77,1.29.48.86.48.48.59.11.11.54.54.7.48,1.4.7,2.74,2.26,1.34,1.34.32.54.21.59,2.53,10.26.27.48.38.48.32.38.91.59,2.79,1.5.54.48.48.59.11.54-.05.54-.21.54-.38.54-.43.48-2.85,2.47-1.07,1.45-.7,1.4-1.34,4.19-.43.86-.38.54-.38.27-.75-1.18-.43-.32-.54-.32-.48-.05-9.67,1.45-2.31.05-1.13-.16-.91-.32-2.79-2.15-2.9-1.07-.86-.43-.54-.48-.38-1.02-.27-.54-.54-.43-.43-.05-.27.27v.48l.11.48.05.54-.11.38-.59.27-.54-.05-.59-.16-1.72-.81-.75-.27h-.54l-.54.05-.32.16-2.04,1.67-.64.43-.7.16-.48-.16-.21-.38v-.48l.05-.54v-.54l-.16-.48-.38-.43-1.45-.91-.38-.43-.16-.43-.05-.43.05-.21v-.21l-.05-.32-.21-.38-.38-.27-.48-.21-.54-.05-2.31-.11-1.02-.16-.64-.38-.54-.43-1.29-1.99-.48-.91-.43-1.07-.64-2.36-.21-.43-.32-.48-.59-.43-.43-.16-.43.05-4.35,2.36-.48.16-.54.11-.54-.05-.97-.16-.7-.27-1.93-1.24-1.07-.48-.7-.11h-.64l-.48.16-5.97,2.85-2.69.64-.48.27-.43.38-.11.43.11.43.38.27.48.05,1.5-.27.43-.05.32.05.38.16.43.27.32.38.21.32.21.48.32,1.56.05.7-.05,1.45-.48,3.49.05,1.13.11.59.16.59.21.54.32.54.38.48.48.48.54.38.54.21,2.69.81.48.27.43.48.21.59.05.64-.16.54-.16.43-1.4,2.31-.43,1.07-.11.54-.05.54.05.54.16.54,1.34,2.69.32,1.07.27,1.07.11.43.21.32.32-.11.86-.7.48-.16.54.05,4.14,2.42.38.27.11.16.11.05.32,1.45.21.54.27.48.43.54,3.01,2.53.43.48.32.48.38.75.7,1.93.81,3.12.21.54.05.05.16.05.38.11,1.45.11.48.05.32.21.32.27.16.48.05.48-.86,5.86.32,8.44-.11.38-.21.48-.48.64-.54.43-.54.27-.59.11-1.13-.05-1.02-.21h-.54l-.48.05-.54.32-.48.54-.64.81-.54.54-.59.38-.54.21-.48.16-.91.11h-1.88l-.48.11-.48.21-.38.43-.27.43-.16.48-.27,1.5-.05.16-1.45-2.15-1.45-1.99-.64-.91-.05-.7.11-.21v-.21l-.05-.27-.05-.16-.16-.11-.32.32h-.21l-.43-.21-.27-.43-.43-.91h.59l.54.11h.54l.54-.21.32-.43v-1.29l.54-1.07-.05-.54-.48-1.07-.11-.64.11-1.5v-.59l-.16-.54-.16-.48-.27-.48-.48-.54-.27-.27-.21-.16-.21-.21-.21-.48-.21-.16-.48-.38-.43-.54-.38-.54-.32-.59-.05-.27-.05-.59-.05-.21-.11-.21-.38-.38-.11-.27.38-.27-.32-.59-1.02-1.07-.16-.32-.38-1.07-.16-.21-.27-.21-.16-.11v-.48l-.05-.16-.21-.27-.32-.75-.16-.27-.32-.21-.7-.32-.27-.16-.91-1.45-.59-.75-.48-.05-.05.32.16.27.05.27-.27.16-.27-.11-.7-.48-.38-.11-.21-.16-.48-.64-.16-.27-.05-.16.05-.54-.05-.16-.27-.05-.16-.16-.27-.64-.05-.59.21-.59.48-.54.32-.54.11-.7-.11-.75-.21-.59-.54-.59-.75-.38-.81-.21-.75-.05-.86-.32-.54-.7-1.5-3.55-.54-.86-.97-1.4-1.72-4.25-1.83-3.28-1.13-1.45-1.34-1.18-.59-.7-.38-1.13-.7-1.24-.48-1.61-.38.11-.32-.27-.59-.91-1.5-1.34-1.83-2.42-.64-1.29-.11-.21v-.27l.05-.21.21-.38.05-.21-.11-.32-.59-.81-1.93-2.36-1.07-.75-.32-.27-.54-.64-.64-1.02-.7-.7-.86-1.67-.27-.64-.05-.54-.05-.97-.11-.48-.21-.32-.75-.86-.43-.7-.59-1.56-.48-.7-.21-.16-.48-.16-.16-.11-.11-.21-.11-.32-.27-.54-.11-.7-.21-.38-1.18-1.4-.38-.64-.21-.21-.38-.21-1.13-.86v.16h-.16l-.21-.32.27-.27.54-.27.38-.21.27.11-.05-.16-.21-.38-.11-.05-.64-.16-.21-.11h-.16v.21h-.11l-.11-.16-.16-.21-.16-.11-.16-.05h-.59l-.32-.32-1.07-.75-.21.16h-.54l.11.11.05.16.11.11-.21-.16-.27-.16-.27-.11-.27.16-.21.16-.75.21-.16.11-.16.11-.05.21h-.16v-.21h-.16l-.32.11-.48-.11h-.43l-.32.38-.11-.11-.11-.05v-.21h.21v-.16l-.11-.21.11-.11.21-.16.21-.05-.21-.11h-.48l-.21.11v.16h.16v.21l-.27.05-.16.21-.21.43-.11-.11h-.05l-.05-.05h-.11l.11-.16.11-.16.21-.11.21-.11v-.38h-.32l-.27.05-.16.16-.05.32-.11-.11h-.05l-.05.05-.11.05v-.38h-.11v.21h-.21l-.11-.21-.11-.16-.11.05-.16.11-.21-.16-.05-.05-.11-.21-.11-.11-.16-.32-.05.05-.05.05-.11.11-.11.11-.27-.21-.11.11v.27l-.11.21-.16.11-.32.16-.11.11v.16l.48.38v.16l-.16.05h-.05l-.05.05-.05.05-.16-.16-.11.48-.05.32-.16.21-.48.05.05-.11h.05l.05-.05-.16-.21-.11-.38-.05-.32v-.64l-.16-.16-.59.21.11-.32-.11-.16.32-.48.21-.21.21-.11v-.11l.16-.05.16-.21.16-.05-.16-.21.05-.11.11-.11.11-.11h.21v.11h-.11l-.05.05.21.11.21.05.11-.05.11-.27h-.16v-.21l-.16-.16.05-.16.16-.16.27-.05v-.16l-.11-.27.21-1.18.11.05.16.05.11.05-.05-.05.05-.27-.16.05-.05.05-.16-.11.48-.48.48-.86.38-.97.21-1.24.48-.7.16-.75.16-.48.64-1.13-.16-1.18-.05-1.24-.38-1.24.43-1.61.32-.86.38-.7v-.16h-.16l.38-.64.05-.32-.11-.32v-.16l.27-.81-.05-.21h0ZM88.16,202.28l.21.21.11.11h-.05l-.11-.05h-.16v.11l.11.16-.21-.05-.43-.27-.16-.27.05-.21h-.21l-.27.11-.16-.21-.11-.38h-.21l-.27.16-.05-.16.16-.48.21-.27h.32l.32.05.27.16.21.54.16-.05.05-.16.05.11.16.86h0ZM86.18,202.33l.38-.05.05.11-.38.27-.21.11-.21.32-.27.43-.32.27-.48-.32-.43-.48-.43-.32-.97-1.02-.05-.05-.05-.16v-.11l.05-.05v-.11l-.27-.27-.27-.38.05-.21.21.05.21.21.43.54.21.16.43.21.81.38.38.11h.32l.21.16.11.16h-.48l-.11.38.21.27.27-.05.27-.32.32-.21h0ZM84.03,199.37l-.21-.11-.32-.27.05-.38.32-.21.32.05.21.27v.32l-.21.21-.16.11h0ZM82.68,200.29l-.27-.21h-.11l-.11-.05-.11-.16v-.27l-.21-.05-.32-.05-.05-.11.11.05-.05-.16-.21-.27-.32-.21h-.43l-.16.16-.11.05-.21.05.05-.21.21-.38.38-.05.43.11,1.13.81.11.16.16.32.32.21.38.11.54.32.81.7.21.21-.05.11-.11.11.05.11-.11-.11-.38-.27-.32-.16-.21-.11-.11-.16-.11-.27-.21-.11-.16.05-.21-.05-.21-.21h0ZM85.21,198.94v-.75l-.05-.16v-.27l.16-.21.21-.05.21.05.11.27v.21l-.05.21h-.11l-.16-.11v.05l.05.16v.11h-.05l.16.32.16.7-.11.21-.27-.38-.16-.11-.11-.27h0ZM80.16,198.35v.16l-.16.27-.16.16-.16-.11-.32-.21-1.83-.97-.54-.11-.16.38-.21-.11-.43-.43-.32-.38-.11-.54.16-.43.59-.59.27-.32.16-.11.05.16-.16.27-.38.59.05.21.16.21.16.16h.11l.11.05.16.16.16.11.21.05.59.64.27.21h.32l.21-.05.05.11v.16l.11.21.21.11.21-.05-.05-.05v-.11l.11-.11.21.05.32.21h0ZM76.93,194.27v-.21l-.05-.54.05-1.07.38-.86.54-.59.16-.05-.27.32-.27.38-.21.43-.05.54.21.43.43.43.16.05.21.05-.05.16-.16.32-.11.38.05.11v.16l.21.16.27-.11.05.05-.11.21-.21.16-.32-.05-.48-.38-.21-.21-.21-.27h0Z"/>
      <path id="SA03-2" data-name="SA03" class="cls-1" d="M96.39,224.79l.05-.16.27-1.5.16-.48.27-.43.38-.43.48-.21.48-.11h1.88l.91-.11.48-.16.54-.21.59-.38.54-.54.64-.81.48-.54.54-.32.48-.05h.54l1.02.21,1.13.05.59-.11.54-.27.54-.43.48-.64.21-.48.11-.38-.32-8.44.86-5.86-.05-.48-.16-.48-.32-.27-.32-.21-.48-.05-1.45-.11-.38-.11-.16-.05-.05-.05-.21-.54-.81-3.12-.7-1.93-.38-.75-.32-.48-.43-.48-3.01-2.53-.43-.54-.27-.48-.21-.54-.32-1.45-.11-.05-.11-.16-.38-.27-4.14-2.42-.54-.05-.48.16-.86.7-.32.11-.21-.32-.11-.43-.27-1.07-.32-1.07-1.34-2.69-.16-.54-.05-.54.05-.54.11-.54.43-1.07,1.4-2.31.16-.43.16-.54-.05-.64-.21-.59-.43-.48-.48-.27-2.69-.81-.54-.21-.54-.38-.48-.48-.38-.48-.32-.54-.21-.54-.16-.59-.11-.59-.05-1.13.48-3.49.05-1.45-.05-.7-.32-1.56-.21-.48-.21-.32-.32-.38-.43-.27-.38-.16-.32-.05-.43.05-1.5.27-.48-.05-.38-.27-.11-.43.11-.43.43-.38.48-.27,2.69-.64,5.97-2.85.48-.16h.64l.7.11,1.07.48,1.93,1.24.7.27.97.16.54.05.54-.11.48-.16,4.35-2.36.43-.05.43.16.59.43.32.48.21.43.64,2.36.43,1.07.48.91,1.29,1.99.54.43.64.38,1.02.16,2.31.11.54.05.48.21.38.27.21.38.05.32v.21l-.05.21.05.43.16.43.38.43,1.45.91.38.43.16.48v.54l-.05.54v.48l.21.38.48.16.7-.16.64-.43,2.04-1.67.32-.16.54-.05h.54l.75.27,1.72.81.59.16.54.05.59-.27.11-.38-.05-.54-.11-.48v-.48l.27-.27.43.05.54.43.27.54.38,1.02.54.48.86.43,2.9,1.07,2.79,2.15.91.32,1.13.16,2.31-.05,9.67-1.45.48.05.54.32.43.32.75,1.18.43,1.07.11.54.05.64v.59l-.21.91-.11.32-.81,1.56-.32.75.05.64.21.54.48.43.48.16.54.05,1.07-.21h.59l.48.43.21.54.05.54-1.29,8.71v.75l.11.64.7,2.85.43,2.58-.21,6.83.11.7.27.59.32.48.38.38.27.21.43.21.48.16.54.05h.54l.54-.11,5.75-2.04,1.18-.16,2.74.05,1.02-.11.48-.11.43-.11.32-.16.43-.21.43-.32.48-.43,1.67-2.15.54-.48.64-.38.81-.27.64-.16,3.98-.16,6.5,1.02,1.99.54.59.21,3.06.75,1.02.32.43.32.38.48.16.64.11.59-.48,6.66.11.59.21.59.43.7.54.43.54.27,3.01.81.38.16.21.21.05.05.43.7.38.97,1.24,4.84.43,1.02.32.48.38.38,1.99,1.5.05.86-.32,1.13-.27.75-.05.11-1.07,1.4-.38.59-.16.43v.38l.05.16.32.86v.59l-.05.97-.43,1.93-.27,4.35.05,2.31-3.01-.43-1.5.05-.54.27-.43.32-.32.48-.11.48.05.54.59,1.67.11.54.05.54-.05,1.13-.16.59-.32.7-.59.91-.59.59-.54.43-4.14,1.83-3.01,1.67-1.02.81-.7.75-.27.59.16.54.43.43.48.38,2.53,1.4.38.43.16.54-.27.7-.43.48-.54.32-2.69.97-.64.43-.7.59-3.22,3.28-6.61,5.21-.91,1.07-1.67,2.58-.59.64-.54.21-.59.05-3.55-1.13-.59-.05-.7.16-.97.59-2.36,1.99-.48.32h-.11l-.59.16-.48.05h-.54l-1.5-.21h-.11l-.48-.32-.27-.43-.11-.48.11-.48.21-1.02.16-1.07-.05-.54-.11-.54-.21-.54-.38-.48-.43-.38-.43-.32-.7-.38-1.56-.48-.43-.21-.32-.38-.05-.48.11-.54,1.29-3.01.11-.48.16-1.18v-.75l-.11-.48-.16-.48-.27-.43-.43-.38-.48-.11-.48-.05-2.2.27-4.94,1.56-1.77.32-.54-.21-.21-.43-.11-1.02-.11-.48-.21-.43-.48-.27h-.64l-2.47.43-.91.05-.81-.11-.54-.38-.54-.43-1.77-2.15-1.88-1.67-.32-.32-.97-1.56-.48-.43-.59-.21-.7.05-1.61.38-2.9.21-.75.11-.05-.54-.05-.7-.16-.54-.05-.48-.38-.38-.16-.27-.11-.43v-.43l-.54.32-.21-.16h-.21l.05.43.21.21.59.21v.16l-.81-.05-.48-.48-.05-1.24-1.02-1.34-.54-1.72-.16-.59-.11-.64-.16-.59-.38-.43-.21-.11-.27-.05-.38-.16-.21-.27-.11-.32-.16-.48-.32-.32-.38-.16-.38-.11-.32-.16-.21-.16-.21-.43-.38-.43-.21-.16-.38-.27-.43-.16-.43-.05-.54-.38-.27-.21-.48-.43-.43-.59-.48-.32-.38-.38-.7-.7-.21-.11h-.16l-.21.05-.21.16-.48-.38-.38-.32-.97-.59-.7-.54.11-.32.43-.27.54-.11-.21-.21-.32.11-.43.21-.21-.32.27-.43.11-.38-.21-.11-.16.16-.32.05-.11.27.11.11.11.27v.32l.05.21-.16.16-.48-.21-.7.21-1.07-.81-.32-.32-.91-.7-.21-.54-.27-.21-.43-.16-.38-.27-.38-.32-.43-.27h-.54l-.27-.05-.38.27-.05.38.11.48-.97.05-.27-.38-.64-.32-.54.16-.54-.54-.32-.59-.48-.7-.86-.7-.27-.86.27-.54.16.05.43.32.21-.43-.16-.43-1.72-2.53h0Z"/>
      <path id="SA02-2" data-name="SA02" class="cls-1" d="M196.51,343.62l1.02-.43.97-.05.48.05.32.16.27.21.38.43.27.48.16.54v.48l-.05.48-.7,3.22v.59l.05.64.11.48.97,1.67.16.59v.59l-.81,2.53-.21.48-.32.43-.43.32-.43.16-.32.11h-.32l-2.58-.27h-.54l-.48.11-.54.16-1.02.59-1.18.91-.43.21-.43-.05-.48-.21-.38-.32-.38-.16-.21.21-.05.48-.16,5.7.11,1.02.16.48.16.54.27.48.43.38.43.27.48.11h2.53l.97.05,1.02.21.48.16.43.27.38.38.27.48,1.61,4.84.16.75v.64l-.11.64-.81,3.12-.43.97-.27.38-.43.43-1.45.81-.43.27-.38.43-.21.43-.43,1.02-.27-.38-.16-.27-.05-.32-.11-.11-.21-.11-.16-.11.11-.38-.43-.05-.48-.16.11-.11v-.05l.05-.05.16-.11-.16-.27-.21-.16h-.27l-.32.11.16-.21.11-.27.05-.21-.16-.16.16-.32-.16-.16-.27-.05-.38.05.05-.32-.05-.48-.16-.48-.21-.32-.11-.27-.16-.91-.05-.21-.05-.21-.05-1.29-.05-.16-.05-.11-.11-.05h-.16l-.11-.11-.05-.21v-.21l-.05-.16-.86-.59-.11-.16-.05-.27-.11-.27-.16-.27-.38-.16-.11-.11-.11-.11-.05-.05-.16.05-.21.21-.11.05-.27-.11-.21-.16-.27-.16-.16-.27-.64-1.34-.27-.38-.27-.32-.16-.32v-.32l.05-.48.54-1.61.11-.48.05-.16.11-.11.05-.16-.21-.32-.11-.05-.54-.27-.97-.27-.21-.75v-.16l-.48-.59-.11-.05v-.27l.05-.27.11-.48.11-.27.11-.21.11-.16.05-.43.11-.54.32-.59-.21-.38-.43-.27-.48-.21-.97-.27-.43-.32-.21-.64-.38-.54-.05-.21v-.27l.16-.59v-.21l-.16-.48v-.21l-.11-.21-.43-.27-.11-.21-.11-.48-.21-.27-.38-.21-.64-.48.05-.11.05-.27-.05-.27-.27-.38-.05-.21v-.27l-.16-.38.05-.27.16-.27.21-.16.11-.21-.16-.16.05-.27-.05-.27-.16-.21-.05-.32-1.93-.7-.59-.27-1.18-1.24-.54-.32v-.16l.27.05.54.32.11-1.02-.05-1.24-.16-.54-1.07-1.56-.43-.27-1.18-.16h-.48l-.21.27.27.59-.32-.27-.32-.54-.16-.48-.05-.21-.32-.21-.97-1.4-.7-.43-.16-.16.05-.16.27-.64-.16-.48-.27-.27-.7-.27-.86-.54-.21-.11-.21-.32-.21-.05-.21-.16-.54-.81-.21-.05-.54-.16-.21-.05-.43-.11-.48-.27-1.07-.86-.81-.91.16-.38-.38-.27-.64-.16-.7-.11-.16-.16-.21-.27-.32-.38-.21-.21v-.11l-.21-.16-.75-.7-.38-.16h-.54l-.54.11-.48.16-.21.21-.54-.21-.97-.59-.54-.21v.32l.16.16.21.11.16.21.11.05.21.11.16.16-.16.11-.38-.11-2.31-1.4-.32-.32-.27-.11-.48-.16-.43-.21-.32-.7-.43-.43-1.24-.97-.64-.64-1.34-2.2-.48-.38v-.21h.43l.11-.11.11-.21-.38-.05-.27-.21-.54-.48-.16-.27-.16-.75-.11-.27-.75-.86-.05-.43.38-.59-.81-.27-.32-.05.05.21.11.11.11.11.16.11-.43-.16-.54-.32-.27-.38.16-.38-.21-.11-.11-.16v-.16l.16-.21.11.16.16.16.21.11.32.05-.11-.27-.05-.16v-.16l-.05-.21h-.11l-.16.05-.16-.11-.32-.43h-.11l-.05.43-.48-.32-.7-.48-.43-.64v-.59l.11.16.16.16.16.05.05-.16-.05-.32-.16-.11-.16-.05-.16-.11-.21-.11h-.27l-.21.11-.27.05v-.11l-.64-.97-.16-.38-.05-.43v-.59l-.05-.21-.32-.21-.11-.27v-.27l-.11-.11-.16-.05-.97-.7-.27-.27-.11-.7-.21-.48-.05-.27.05-.16.21-.32.05-.16-.16-.32-.91-1.34-.27-.21-.75-1.18,1.83-1.61.27-.59.05-.81-.21-.7-.32-.38v-.16l.21-.21v-.32l-.38-.81-.32.48-.21.11-.21-.32-.21-.48.16-.16-.38-.54-.11-.75.05-.75-.05-.7-.21-.64v-.38l.48-.16.11-.16.11-.32v-.43l-.16-.27-.16.48-.16.27-.16.11h-.32l-.05-.11v-.21l-.11-.21-.16-.11-.05-.11-.11-.11-.11-.16-.11-.27v-.38l-.11-.21-.27-.16-.05-.11-.11-.21v-.05l-.81-1.02-.7-1.45-.38-2.15v-.48l.64-.21.59.81h.48l.11-.54v-.48l.05-.27.05-.11.32-.21.05-.11.05-.48.21-1.02.05-.48h-.11l-.38.86-.11-.38.05-.27.16-.27.05-.38v-1.02l.21-.7.75-.86.21-1.07.16-.27.21-.16.21-.27.32-.7.38-.43.11-.11v-.32l-.16-.27-.21-.16-.27.05-.16.27-.16.7-.16.27-.54.11-.05-.75.32-1.02-.21-1.4.16-1.4-.16-.7-.16-.32-.64-.86-.59-1.4-.48-.75-.16-.43.05-.27.64-.59-.05-.21-1.13-1.24-.43-.38-.21.11.05.16.43.43.16.21.05.27.05.27.05.27.16.21-.16.21-.32-.75-.64-.97-.64-.7-1.18-2.2v-.32l.7.38.75,1.67.38.11.27.16.21-.05.16-.16.16-.27-.27-.32-.38-.75-.21-.16-.16-.05-.21-.16-.16-.27-.05-.27-.21-.43-.43-.16-.54-.16-.38-.21-.48.11-.32-.38-.48-1.07.27-.27.16-.32.16-.38.05-.38-.05-.7-.11-.38-.05-.32-.27-.11-.21.38-.27-.59-.43-.54-.43-.81-.38-.54-.21-.54-.27-.38-.05-.32-.21-.48v-.32l-.16-.75-.32-.59-.27-.75-.11-.48.75-.11,2.9-.21,1.61-.38.7-.05.59.21.48.43.97,1.56.32.32,1.88,1.67,1.77,2.15.54.43.54.38.81.11.91-.05,2.47-.43h.64l.48.27.21.43.11.48.11,1.02.21.43.54.21,1.77-.32,4.94-1.56,2.2-.27.48.05.48.11.43.38.27.43.16.48.11.48v.75l-.16,1.18-.11.48-1.29,3.01-.11.54.05.48.32.38.43.21,1.56.48.7.38.43.32.43.38.38.48.21.54.11.54.05.54-.16,1.07-.21,1.02-.11.48.11.48.27.43.48.32h.11l1.5.21h.54l.48-.05.59-.16h.11l.48-.32,2.36-1.99.97-.59.7-.16.59.05,3.55,1.13.59-.05.54-.21.59-.64,1.67-2.58.91-1.07,6.61-5.21,3.22-3.28.7-.59.64-.43,2.69-.97.54-.32.43-.48.27-.7-.16-.54-.38-.43-2.53-1.4-.48-.38-.43-.43-.16-.54.27-.59.7-.75,1.02-.81,3.01-1.67,4.14-1.83.54-.43.59-.59.59-.91.32-.7.16-.59.05-1.13-.05-.54-.11-.54-.59-1.67-.05-.54.11-.48.32-.48.43-.32.54-.27,1.5-.05,3.01.43-.21,2.42.05,1.61.16.48.27.38.27.21.86.54.48.38.48.48.43.81,1.24,3.98.59,1.34.21.64.7,3.6,2.96,7.15.27.32.32.38.43.38.48.32.54.21.48.16.86.16,3.6-.05,5.05.43,1.02.21.59.21.54.27.64.54.32.54.11.54-.11.43-.32,1.07-.16,2.58.05.59.16.64.48.97.48.43.54.32,1.02.38.54.05.54-.05,2.74-.75.48-.11.54.05,2.74.54.48.11.43.27.38.38v.11l-.64,3.71v1.02l1.18,8.38v.48l-.11.54-.16.48-.21.54-.27.48-.7.91-.27.48-.21.48-.05.48.32,4.19-.16,1.07-.97,3.6v1.02l.16.54.27.48,6.07,9.08-2.47.97-3.65,2.15-.81.27-.7.05-1.45-.54-.64-.11-.64-.05-.97.16-.75.21-1.45.59-.43.16-.38.05-1.45.05-.81.16-.64.27-.59.38-.91.91-.64.54-4.57,2.53-5.91,5.32-.75.59-1.29.7-.75.21-.64.05-.54-.16-.48-.27-.43-.38-.38-.54-2.36-4.89-.43-.7-1.34-1.13-.43-.16-.59-.11-.48.16-2.15,1.24-.54.21-.48.16h-2.47l-.75.11-.64.16-1.13.48-.7.21-.48-.05-.27-.11-.38-.27-.32-.43-.27-.48-.7-2.04-.38-.54-.48-.43-.7-.32-.59-.05-.54.05-.54.21-.43.32-.38.43-.21.38-.16.27-.11.43-.05.48.05.54.21,1.02.38,1.45.05.75v.27l-.16.64-1.61,2.96-.64,1.61-.32.48-.54.48-.54.27-.54.16-2.26.32-.75.21-.59.32-.48.38-1.77,1.83-.32.48-.05.48.11.43.38.43.48.21,1.72.54.11.05.21.16.27.43.21.48.16.54v.54l-.27,2.53.05.48.43,1.61.05.48-.16,2.04.05.48.11.54.27.48.32.38.27.16,1.77.97.59.54,1.45,1.93.48.43.54.27.64.11h.54l.54-.05.48-.16.48-.27.43-.32.27-.48.16-.48.59-2.63,1.45-3.92.64-1.07.27-.32.21-.21.43-.21.48-.05h2.15l.81-.11.64-.32h0Z"/>
      <path id="SA01-2" data-name="SA01" class="cls-1" d="M272.82,147.51l.27.16,1.99,1.45.97.91.38.54.32.64.64,2.26.27.7.59.7.48.48,6.61,3.82,1.07.32,1.67.16.54.11.48.27.48.43,1.45,1.77,2.2,2.1.97.7.54.21.97.21,3.87.11,1.02.21,1.02.38,1.45.81,5.7,4.14.54.27.59.16.54.11h.54l3.44-.64.59.05.48.16.54.32,3.82,3.76.64.97.43.48.48.32,7.42,2.96.27.21.32.32.32.48.21.48.16.48.11.81.54,34.45.21,1.18.16.38.32.48.38.48,8.22,5.97,5.86,5.91.97,1.18.97,1.61.97,2.26.54,1.83.38,3.06-.16,5.64-6.61,54.12-6.23,48.8-3.01.86-54.33,5.86-5.97-.38-2.2-.54-1.24-.48-1.67-.81-6.45-4.08-.38-.27-9.14-8.44-2.26-3.76-1.29-1.56-.38-.59-.16-.81v-.59l.91-4.25.43-.91,1.34-2.2.21-.43.16-.48v-.11l.05-.48-.05-.43-.16-.54-.32-.59-1.88-2.15-1.4-1.83-.75-1.18-1.24-1.5-3.39-3.06-6.07-9.08-.27-.48-.16-.54v-1.02l.97-3.6.16-1.07-.32-4.19.05-.48.21-.48.27-.48.7-.91.27-.48.21-.54.16-.48.11-.54v-.48l-1.18-8.38v-1.02l.64-3.71v-.11l-.38-.38-.43-.27-.48-.11-2.74-.54-.54-.05-.48.11-2.74.75-.54.05-.54-.05-1.02-.38-.54-.32-.48-.43-.48-.97-.16-.64-.05-.59.16-2.58.32-1.07.11-.43-.11-.54-.32-.54-.64-.54-.54-.27-.59-.21-1.02-.21-5.05-.43-3.6.05-.86-.16-.48-.16-.54-.21-.48-.32-.43-.38-.32-.38-.27-.32-2.96-7.15-.7-3.6-.21-.64-.59-1.34-1.24-3.98-.43-.81-.48-.48-.48-.38-.86-.54-.27-.21-.27-.38-.16-.48-.05-1.61.21-2.42-.05-2.31.27-4.35.43-1.93.05-.97v-.59l-.32-.86-.05-.16v-.38l.16-.43.38-.59,1.07-1.4.05-.11.27-.75.32-1.13-.05-.86.48-.97,1.5-2.36.32-.32.64-.48.54-.21.54-.11.48.11,2.47,1.24,1.02.38,1.67.43,4.19.43h1.13l3.33-.48,1.07.05,1.83.48h.43l.48-.11.54-.27.59-.48.43-.64.38-.91.05-.7-.16-.59-.64-1.07-.21-.48-.11-.54.11-.64.32-.7,2.26-2.96,2.2-2.26.59-.38.54-.27,7.74-1.88.91-.43.59-.38,1.24-1.18,1.67-1.07.48-.54.43-.7.86-1.72.64-.86.38-.38.27-.27.38-.27.48-.21.48-.16.54-.11h1.07l4.94.64,5.54-.38,2.1.16.48-.05.43-.16.27-.38.16-.48.11-.54.05-.75v-.91l-.21-1.5-.27-.91-.32-.75-.64-1.18-.16-.59.11-.75.27-1.18-.11-.81-.05-.11-1.77-2.42-2.04-3.44-.59-.7-1.83-1.83-.38-.54-.27-.48-.11-.54v-.54l.48-3.39v-1.13l-.16-1.18.05-.59.43-.59.54-.32.54-.16.91-.21.27-.11.38-.38,1.72-2.47.86-.97,1.02-.97.59-.43.59-.32,1.13-.38.54-.27.43-.38.32-.43.16-.43.11-.32v-.43l-.05-.48-.16-.54-.21-.59-.27-.54-.38-.54-.48-.48-.97-.81-1.02-.75-1.5-.64-.16-.32-.21-.91-.05-.59.05-.54.05-.48.27-.81.32-.86.64-1.02.59-.81.75-.64.32-.27h.05l1.34-.54.43.38.11.16.05.05.32.43.43.32.48.21.54.05.59-.27.48-.27.97-1.4h0Z"/>
      <path id="SA05-2" data-name="SA05" class="cls-1" d="M205.7,222.97l-1.99-1.5-.38-.38-.32-.48-.43-1.02-1.24-4.84-.38-.97-.43-.7-.05-.05-.21-.21-.38-.16-3.01-.81-.54-.27-.54-.43-.43-.7-.21-.59-.11-.59.48-6.66-.11-.59-.16-.64-.38-.48-.43-.32-1.02-.32-3.06-.75-.59-.21.91-.81.91-.32,1.4-.16.81-.21,3.71-2.04.86-.38.75-.21,2.26-.21.54-.16.38-.38.16-.38-.11-.43-.11-.32-1.07-1.99-.16-.59-.05-.54.11-.64.32-.54.59-.64.54-.27.48-.05.38.11,1.83.7.59.16h.54l.43-.11.27-.43.11-.43v-.43l-.05-.21-.43-2.1v-1.07l.11-.48.38-1.13.54-1.07.32-.38.48-.27h.48l.54.05.59-.05,1.07-.27.48-.21.32-.48.16-.54.38-.91.64-1.13,2.74-3.17,6.07-4.94,2.79-1.83,5.32-2.26.81-.54.48-.59.32-.59.97-2.1.81-1.02,1.13-1.13,1.77-1.13,8.76-4.51,1.18-.43.54-.16h.54l.48.05.54.21.54.27.86.75,1.67,1.77,2.96,2.42,1.02.59.54.16,2.42.16,1.56.32h.54l.43-.11.43-.27.32-.21,1.77-2.47.97-.91,1.5.64,1.02.75.97.81.48.48.38.54.27.54.21.59.16.54.05.48v.43l-.11.32-.16.43-.32.43-.43.38-.54.27-1.13.38-.59.32-.59.43-1.02.97-.86.97-1.72,2.47-.38.38-.27.11-.91.21-.54.16-.54.32-.43.59-.05.59.16,1.18v1.13l-.48,3.39v.54l.11.54.27.48.38.54,1.83,1.83.59.7,2.04,3.44,1.77,2.42.05.11.11.81-.27,1.18-.11.75.16.59.64,1.18.32.75.27.91.21,1.5v.91l-.05.75-.11.54-.16.48-.27.38-.43.16-.48.05-2.1-.16-5.54.38-4.94-.64h-1.07l-.54.11-.48.16-.48.21-.38.27-.27.27-.38.38-.64.86-.86,1.72-.43.7-.48.54-1.67,1.07-1.24,1.18-.59.38-.91.43-7.74,1.88-.54.27-.59.38-2.2,2.26-2.26,2.96-.32.7-.11.64.11.54.21.48.64,1.07.16.59-.05.7-.38.91-.43.64-.59.48-.54.27-.48.11h-.43l-1.83-.48-1.07-.05-3.33.48h-1.13l-4.19-.43-1.67-.43-1.02-.38-2.47-1.24-.48-.11-.54.11-.54.21-.64.48-.32.32-1.5,2.36-.48.97h0Z"/>
      <path id="SA06-2" data-name="SA06" class="cls-1" d="M169.69,113.76l2.69,1.13,1.34.32h.54l12.31-2.85,1.67-.21.97.05.75.11,5.64,1.83.81.16h.59l.59-.11,2.85-.7,2.47-.16.59.05,7.95,1.83,1.07.43.48.32.54.48,2.79,3.39.7.54.81.54,1.13.43.86.11.75-.05.7-.16.64-.27,1.88-1.02.64-.32.7-.11h.81l.48.27.21.21.05.21.11,1.99.05.32.16.59.32.81.54.59.81.54.64.16.59.05,2.31-.21.81.05.64.21,2.47,1.29.91.32.59.05.54-.11.91-.43,2.69-1.77.64-.27.81-.05.64.21.54.43.38.54,3.92,7.09,1.93,5.16.81,1.13.59.54.59.48.81.38.64.21,7.15,1.13.81.27,1.02.59.54.38,3.87,3.49.59.7.32.75-1.34.54h-.05l-.32.27-.75.64-.59.81-.64,1.02-.32.86-.27.81-.05.48-.05.54.05.59.21.91.16.32-.97.91-1.77,2.47-.32.21-.43.27-.43.11h-.54l-1.56-.32-2.42-.16-.54-.16-1.02-.59-2.96-2.42-1.67-1.77-.86-.75-.54-.27-.54-.21-.48-.05h-.54l-.54.16-1.18.43-8.76,4.51-1.77,1.13-1.13,1.13-.81,1.02-.97,2.1-.32.59-.48.59-.81.54-5.32,2.26-2.79,1.83-6.07,4.94-2.74,3.17-.64,1.13-.38.91-.16.54-.32.48-.48.21-1.07.27-.59.05-.54-.05h-.48l-.48.27-.32.38-.54,1.07-.38,1.13-.11.48v1.07l.43,2.1.05.21v.43l-.11.43-.27.43-.43.11h-.54l-.59-.16-1.83-.7-.38-.11-.48.05-.54.27-.59.64-.32.54-.11.64.05.54.16.59,1.07,1.99.11.32.11.43-.16.38-.38.38-.54.16-2.26.21-.75.21-.86.38-3.71,2.04-.81.21-1.4.16-.91.32-.91.81-1.99-.54-6.5-1.02-3.98.16-.64.16-.81.27-.64.38-.54.48-1.67,2.15-.48.43-.43.32-.43.21-.32.16-.43.11-.48.11-1.02.11-2.74-.05-1.18.16-5.75,2.04-.54.11h-.54l-.54-.05-.48-.16-.43-.21-.27-.21-.38-.38-.32-.48-.27-.59-.11-.7.21-6.83-.43-2.58-.7-2.85-.11-.64v-.75l1.29-8.71-.05-.54-.21-.54-.48-.43h-.59l-1.07.21-.54-.05-.48-.16-.48-.43-.21-.54-.05-.64.32-.75.81-1.56.11-.32.21-.91v-.59l-.05-.64-.11-.54-.43-1.07.38-.27.38-.54.43-.86,1.34-4.19.7-1.4,1.07-1.45,2.85-2.47.43-.48.38-.54.21-.54.05-.54-.11-.54-.48-.59-.54-.48-2.79-1.5-.91-.59-.32-.38-.38-.48-.27-.48-2.53-10.26-.21-.59-.32-.54-1.34-1.34-2.74-2.26-1.4-.7-.7-.48-.54-.54-.11-.11-.48-.59-.86-.48-1.29-.48-7.47-1.77-.54-.21-.38-.27-.43-.54,2.53-2.79.54-.38.59-.38,8.76-4.19,4.03-1.13,8.6-4.89,8.81-3.65.48-.05,1.45.38h0Z"/>
      <path id="SA11-2" data-name="SA11" class="cls-1" d="M204.25,323.14l-1.13,3.82.05.64.16.75.59.59.27.43.11.59-.16.59-.54.75-.48.48-2.74,1.93-.54.48-.32.64-.21.7-.11,1.72-.38,1.24-2.31,5.11-.64.32-.81.11h-2.15l-.48.05-.43.21-.21.21-.27.32-.64,1.07-1.45,3.92-.59,2.63-.16.48-.27.48-.43.32-.48.27-.48.16-.54.05h-.54l-.64-.11-.54-.27-.48-.43-1.45-1.93-.59-.54-1.77-.97-.27-.16-.32-.38-.27-.48-.11-.54-.05-.48.16-2.04-.05-.48-.43-1.61-.05-.48.27-2.53v-.54l-.16-.54-.21-.48-.27-.43-.21-.16-.11-.05-1.72-.54-.48-.21-.38-.43-.11-.43.05-.48.32-.48,1.77-1.83.48-.38.59-.32.75-.21,2.26-.32.54-.16.54-.27.54-.48.32-.48.64-1.61,1.61-2.96.16-.64v-.27l-.05-.75-.38-1.45-.21-1.02-.05-.54.05-.48.11-.43.16-.27.21-.38.38-.43.43-.32.54-.21.54-.05.59.05.7.32.48.43.38.54.7,2.04.27.48.32.43.38.27.27.11.48.05.7-.21,1.13-.48.64-.16.75-.11h2.47l.48-.16.54-.21,2.15-1.24.48-.16.59.11.43.16,1.34,1.13h0Z"/>
    </g>
  </g>
</svg>